SplineFontDB: 1.0
FontName: Tuffy_Bold
FullName: Tuffy_Bold
FamilyName: Tuffy
Weight: Bold
Copyright: Created by Thatcher Ulrich, with FontForge 1.0 (http://fontforge.sf.net)\n\nThis font, including hint instructions, has been donated to the Public Domain.  Do whatever you want with it.\n
Comments: 2004-9-1: Created.
Version: 001.000
ItalicAngle: 0
UnderlinePosition: -100
UnderlineWidth: 50
Ascent: 780
Descent: 220
NeedsXUIDChange: 1
XUID: [1021 745 1046372284 12407487]
FSType: 0
PfmFamily: 33
TTFWeight: 700
TTFWidth: 5
Panose: 2 11 8 3 6 1 0 0 0 0
LineGap: 90
VLineGap: 0
OS2WinAscent: 0
OS2WinAOffset: 1
OS2WinDescent: 0
OS2WinDOffset: 1
HheadAscent: 0
HheadAOffset: 1
HheadDescent: 0
HheadDOffset: 1
ScriptLang: 2
 1 latn 1 dflt 
 1 DFLT 1 dflt 
TtfTable: cvt  4
!$MDh
EndTtf
LangName: 1033 "" "" "" "" "" "" "" "" "" "Thatcher Ulrich" "" "http://tulrich.com+AAoA" "http://tulrich.com+AAoA" "Public Domain+AAoA" 
Encoding: iso8859_1
UnicodeInterp: none
DisplaySize: -36
AntiAlias: 1
FitToEm: 1
WinInfo: 0 16 7
Grid
-22 436 m 2
 774 436 l 0
480 830 m 25
 480 -16 l 25
562 832 m 25
 562 -14 l 25
-24 350 m 2
 772 350 l 0
-22 700 m 2
 774 700 l 0
-28 -14 m 2
 768 -14 l 0
26 832 m 25
 26 -14 l 25
-22 682 m 2
 774 682 l 0
EndSplineSet
TeXData: 1 10485760 0 315621 157810 105207 456131 1048576 105207 783286 444596 497025 792723 393216 433062 380633 303038 157286 324010 404750 52429 2506097 1059062 262144
BeginChars: 256 192
StartChar: .notdef
Encoding: 0 0 0
Width: -32768
Flags: HW
Fore
126.281 554.199 m 21
 111.366 523.619 113.164 489.766 96 466 c 5
 74.7373 436.559 84.4268 426.261 84.4268 387.189 c 4
 84.4268 346.879 165.39 257.392 283.65 257.392 c 4
 394 257.392 473.354 351.78 473.354 392.392 c 4
 473.354 428.818 488.299 439.911 465.375 470.208 c 5
 447.01 494.478 443.993 526.339 428.241 558.407 c 13
 369 475 l 21
 329.374 484.276 231.273 481.991 191.647 470.792 c 13
 126.281 554.199 l 21
108 658 m 13
 197.544 538.846 l 21
 251.825 554.845 302.565 552.098 356.847 538.846 c 13
 438 658 l 21
 459.578 612.188 463.71 566.672 488.868 532 c 5
 520.271 488.72 546.238 448.312 546.238 396.274 c 4
 546.238 338.258 436.165 200.559 285 200.559 c 4
 123 200.559 13.4619 335.542 13.4619 393.128 c 4
 13.4619 448.944 37.3926 489.941 66.5205 532 c 5
 90.0322 565.951 87.5684 614.312 108 658 c 13
EndSplineSet
EndChar
StartChar: exclam
Encoding: 33 33 1
Width: 173
Flags: HW
HStem: -12 138<111 123> 662 20G<63 159>
VStem: 63 96<208 682>
Fore
17 57 m 0
 17 95.0879 47.9121 126 86 126 c 0
 124.088 126 155 95.0879 155 57 c 0
 155 18.9121 124.088 -12 86 -12 c 0
 47.9121 -12 17 18.9121 17 57 c 0
134 208 m 1
 38 208 l 1
 38 682 l 1
 134 682 l 1
 134 208 l 1
EndSplineSet
EndChar
StartChar: quotedbl
Encoding: 34 34 2
Width: 346
Flags: HW
VStem: 26 96<492 725> 222 96<490 723>
Fore
222 490 m 1
 222 723 l 1
 318 723 l 1
 318 490 l 1
 222 490 l 1
26 492 m 1
 26 725 l 1
 122 725 l 1
 122 492 l 1
 26 492 l 1
EndSplineSet
EndChar
StartChar: numbersign
Encoding: 35 35 3
Width: 686
Flags: HW
HStem: 175 96<27 177 273 407 503 659> 399 96<27 177 273 407 503 659>
VStem: 177 96<25 175 271 399 495 657> 407 96<25 175 271 399 495 657>
Fore
407 271 m 0
 407 399 l 0
 273 399 l 0
 273 271 l 0
 407 271 l 0
503 175 m 0
 503 25 l 1
 407 25 l 1
 407 175 l 0
 273 175 l 0
 273 25 l 1
 177 25 l 1
 177 175 l 0
 27 175 l 1
 27 271 l 1
 177 271 l 0
 177 399 l 0
 27 399 l 1
 27 495 l 1
 177 495 l 0
 177 657 l 1
 273 657 l 1
 273 495 l 0
 407 495 l 0
 407 657 l 1
 503 657 l 1
 503 495 l 0
 659 495 l 1
 659 399 l 1
 503 399 l 0
 503 271 l 0
 659 271 l 1
 659 175 l 1
 503 175 l 0
EndSplineSet
KernsSLIF: 36 -26 0 0
EndChar
StartChar: dollar
Encoding: 36 36 4
Width: 392
Flags: HW
HStem: -1 173<177 226> 307 82<163.352 195> 521 161<130 195>
VStem: 2 94<446 464> 130 96<-1 85 597 682> 262 96<229 244>
Fore
23 198 m 5
 113 231 l 5
 126 198 141 172 196 172 c 4
 247 172 274 207 274 241 c 5
 274 277 245 307 193 307 c 4
 90 307 14 380 14 458 c 4
 14 536 73 573 142 597 c 4
 142 682 l 13
 238 682 l 21
 238 602 l 4
 296 588 354 541 365 488 c 4
 278 461 l 5
 269 489 241 521 196 521 c 5
 145 521 108 495 108 454 c 5
 108 412 145 389 192 389 c 5
 299 389 370 329 370 242 c 4
 370 157 311 108 238 85 c 4
 238 -1 l 13
 142 -1 l 21
 142 85 l 4
 88 102 38 138 23 198 c 5
EndSplineSet
EndChar
StartChar: percent
Encoding: 37 37 5
Width: 682
Flags: HW
HStem: 64 74<512 530> 242 74<512 530> 379 74<118.154 131> 557 74<118.154 131>
VStem: 1 77<505 513> 178 79<505 513> 393 77<179.6 193> 570 79<179.6 193>
DStem: 426 618 540 618 89 64 203 64
Fore
483 190 m 0
 483 161.296 505.4 138 533 138 c 0
 560.6 138 583 161.296 583 190 c 0
 583 218.704 560.6 242 533 242 c 0
 505.4 242 483 218.704 483 190 c 0
406 190 m 0
 406 259.552 463.344 316 534 316 c 0
 604.656 316 662 259.552 662 190 c 0
 662 120.448 604.656 64 534 64 c 0
 463.344 64 406 120.448 406 190 c 0
91 505 m 0
 91 476.296 113.4 453 141 453 c 0
 168.6 453 191 476.296 191 505 c 0
 191 533.704 168.6 557 141 557 c 0
 113.4 557 91 533.704 91 505 c 0
14 505 m 0
 14 574.552 71.3438 631 142 631 c 0
 212.656 631 270 574.552 270 505 c 0
 270 435.448 212.656 379 142 379 c 0
 71.3438 379 14 435.448 14 505 c 0
216 64 m 1
 102 64 l 1
 439 618 l 0
 553 618 l 1
 216 64 l 1
EndSplineSet
EndChar
StartChar: ampersand
Encoding: 38 38 6
Width: 507
Flags: HW
HStem: 338 93<215 228> 603 96<218 233>
VStem: 24 96<193 211> 53 96<514.348 534>
Fore
280 555.949 m 17xd0
 269.37 585.101 254 603 213 603 c 1
 172 603 144 570 144 531 c 1xd0
 144 494 160 431 221 431 c 1
 300 433 l 1
 300 338 l 1
 223 338 l 1
 164 338 115 266 115 203 c 1
 114 151 151.841 88.7881 218 81 c 1
 281.608 78.2529 299.465 119.449 307.459 165 c 1
 230 164 l 1
 230 260 l 1
 474 260 l 1
 474 164 l 1
 403 163.867 l 1
 390.264 77.8408 342 -14 218 -14 c 1
 106 -14 16 61 19 202 c 1xe0
 19 284 60 388 146 388 c 1
 78 388 48 476 48 531 c 1
 48 622 126 700 213 699 c 1
 296 700 336.426 658.633 360 608.876 c 9
 280 555.949 l 17xd0
EndSplineSet
EndChar
StartChar: quotesingle
Encoding: 39 39 7
Width: 150
Flags: HW
VStem: 26 96<492 725>
Fore
26 492 m 1
 26 725 l 1
 122 725 l 1
 122 492 l 1
 26 492 l 1
EndSplineSet
EndChar
StartChar: parenleft
Encoding: 40 40 8
Width: 258
Flags: HW
HStem: 0 21G<115 223>
Fore
126 0 m 1
 50.2178 116.208 12.6787 240.598 13.9951 366 c 1
 15.2607 486.521 52.415 607.975 126 724 c 1
 234 724 l 1
 151.173 602.701 110.993 483.404 109.994 366 c 1
 108.938 241.93 151.639 119.973 234 0 c 1
 126 0 l 1
EndSplineSet
EndChar
StartChar: parenright
Encoding: 41 41 9
Width: 252
Flags: HW
HStem: 0 21G<2 110>
Fore
120 0 m 1
 12 0 l 1
 95.0254 120.939 137.747 243.895 135.972 369 c 1
 134.319 485.438 94.1221 603.734 12 724 c 1
 120 724 l 1
 193.585 607.975 230.739 486.521 232.004 366 c 1
 233.321 240.598 195.782 116.208 120 0 c 1
EndSplineSet
EndChar
StartChar: asterisk
Encoding: 42 42 10
Width: 428
Flags: HW
DStem: 87.2344 451.615 156.189 492.176 146.419 350.271 214.729 391.198 147.707 270.649 217.306 231.953 91.5947 164.134 165.721 128.845 217.306 231.953 285.616 269.88 272.804 136.146 341.759 176.708 269.052 493.596 340.744 454.555 214.729 391.198 284.328 350.502
Fore
26 270 m 1
 26.71 350.63 l 1
 146.419 350.271 l 1
 87.2344 451.615 l 1
 156.189 492.176 l 1
 214.729 391.198 l 1
 269.052 493.596 l 1
 340.744 454.555 l 1
 284.328 350.502 l 1
 402.311 350.137 l 1
 402.111 269.651 l 1
 285.616 269.88 l 1
 341.759 176.708 l 1
 272.804 136.146 l 1
 217.306 231.953 l 1
 165.721 128.845 l 1
 91.5947 164.134 l 1
 147.707 270.649 l 1
 26 270 l 1
EndSplineSet
EndChar
StartChar: plus
Encoding: 43 43 11
Width: 420
Flags: HW
HStem: 254 96<26 161 259 394>
VStem: 161 100<123 254 350 481>
Fore
26 350 m 1
 26 350 l 1
 159 350 l 1
 159 481 l 1
 259 481 l 1
 259 350 l 1
 394 350 l 1
 394 254 l 1
 261 254 l 1
 261 123 l 1
 161 123 l 1
 161 254 l 1
 26 254 l 1
 26 350 l 1
EndSplineSet
EndChar
StartChar: comma
Encoding: 44 44 12
Width: 180
Flags: HW
DStem: 80 0 155 45 38 -96 101 -96
Fore
155 45 m 1
 101 -96 l 1
 38 -96 l 1
 80 0 l 1
 48 6 26 26 26 60 c 1
 26 96 46 124.459 87.7178 124.459 c 1
 136 124.459 155 90 155 45 c 1
EndSplineSet
EndChar
StartChar: hyphen
Encoding: 45 45 13
Width: 428
Flags: HW
HStem: 254 96<26 401>
Fore
26 350 m 1
 26 350 l 1
 401 350 l 1
 401 254 l 1
 26 254 l 1
 26 350 l 1
EndSplineSet
EndChar
StartChar: period
Encoding: 46 46 14
Width: 178
Flags: HW
HStem: 0 21G<80.06 115.94>
Back
26 65 m 4
 26 100.88 55.12 130 91 130 c 4
 126.88 130 156 100.88 156 65 c 4
 156 29.12 126.88 0 91 0 c 4
 55.12 0 26 29.12 26 65 c 4
EndSplineSet
Fore
23 65 m 0
 23 100.88 52.1201 130 88 130 c 0
 123.88 130 153 100.88 153 65 c 0
 153 29.1201 123.88 0 88 0 c 0
 52.1201 0 23 29.1201 23 65 c 0
EndSplineSet
EndChar
StartChar: slash
Encoding: 47 47 15
Width: 479
Flags: HW
HStem: 0 21G<0 126>
DStem: 336 723 462 723 0 0 126 0
Fore
136 0 m 1
 10 0 l 1
 346 723 l 0
 472 723 l 1
 136 0 l 1
EndSplineSet
EndChar
StartChar: zero
Encoding: 48 48 16
Width: 473
Flags: HW
HStem: -14 96<220 226> 603 96<224 226>
VStem: 0 96<349 371> 344 96<349 371>
Fore
14 349 m 1
 14 509 88 699 238 699 c 1
 388 699 454 509 454 349 c 1
 454 189 384 -14 234 -14 c 1
 84 -14 14 189 14 349 c 1
110 349 m 1
 110 273 130 82 234 82 c 1
 338 82 358 274 358 349 c 1
 358 424 342 603 238 603 c 1
 134 603 110 424 110 349 c 1
EndSplineSet
EndChar
StartChar: one
Encoding: 49 49 17
Width: 271
Flags: HW
HStem: 0 21G<144 240> 662 20G<144 240>
VStem: 144 96<0 682>
Fore
76 488 m 1
 15 562 l 1
 150 682 l 1
 246 682 l 1
 246 0 l 1
 150 0 l 1
 150 552 l 5
 76 488 l 1
EndSplineSet
EndChar
StartChar: two
Encoding: 50 50 18
Width: 469
Flags: HW
HStem: 0 21G<26 440>
VStem: 324 106<459 481>
Back
14 472 m 4
 14 597.856 107.184 700 222 700 c 4
 336.816 700 430 597.856 430 472 c 4
 430 346.144 336.816 244 222 244 c 4
 107.184 244 14 346.144 14 472 c 4
120 472 m 4
 120 544.864 165.696 604 222 604 c 4
 278.304 604 324 544.864 324 472 c 4
 324 399.136 278.304 340 222 340 c 4
 165.696 340 120 399.136 120 472 c 4
EndSplineSet
Fore
122 504 m 9
 26 546 l 17
 47 626 126 699.72 221 699.72 c 1
 314 700 430 627 430 459.28 c 1
 430 346 322 250 212 140.88 c 1
 167 95.96 l 1
 440 95.96 l 17
 440 0 l 1
 26 0 l 1
 26 96.6797 l 1
 132 202.543 l 17
 212 284 324 362 324 459.28 c 0
 324 553 277 603.22 221 603.22 c 1
 171 603.22 136 562 122 504 c 9
EndSplineSet
EndChar
StartChar: three
Encoding: 51 51 19
Width: 459
Flags: HW
Back
12 504 m 4
 12 618.816 105.184 700 220 700 c 4
 334.816 700 428 618.816 428 504 c 4
 428 389.184 334.816 308 220 308 c 4
 105.184 308 12 389.184 12 504 c 4
106 504 m 4
 106 566.928 157.072 606 220 606 c 4
 282.928 606 334 566.928 334 504 c 4
 334 441.072 282.928 402 220 402 c 4
 157.072 402 106 441.072 106 504 c 4
220 504 m 29
11 194 m 4
 11 308.816 104.184 402 219 402 c 4
 333.816 402 427 308.816 427 194 c 4
 427 79.1836 333.816 -14 219 -14 c 4
 104.184 -14 11 79.1836 11 194 c 4
105 194 m 4
 105 256.928 156.072 308 219 308 c 4
 281.928 308 333 256.928 333 194 c 4
 333 131.072 281.928 80 219 80 c 4
 156.072 80 105 131.072 105 194 c 4
219 194 m 29
EndSplineSet
Fore
16 118 m 17
 52 34 145.933 -14.1772 218.713 -14.4355 c 1
 341 -14 436.708 64.5645 436.708 189 c 1
 436.708 282.564 382 329 354 353 c 1
 379 375 428.442 417 428.442 508.215 c 1
 428.442 613 338 700.859 219.502 700.859 c 1
 142 700 68 666 32 592 c 9
 116 544 l 17
 132 592 185.608 607.371 219.502 605.661 c 1
 287 605.661 331.972 562.564 331.972 508.215 c 1
 331.972 446 289.211 402 221 402 c 1
 205.137 402 196.766 399.915 184 404 c 1
 184 306 l 1
 197.428 310.742 205.791 308.385 220.502 308.385 c 1
 294.713 308.385 340.675 259.564 340.675 188.852 c 1
 340.675 127.564 283.713 81.5664 218.713 81.5664 c 1
 181.012 81.5664 130 98 106 150 c 9
 16 118 l 17
EndSplineSet
EndChar
StartChar: four
Encoding: 52 52 20
Width: 504
Flags: HW
HStem: 1 21G<285 381> 232 96<128 285 381 477> 662 20G<89 188 285 381>
VStem: 285 96<1 232 328 682>
DStem: 89 682 188 682 22 232 128 328
Fore
381 1 m 1
 285 1 l 1
 285 232 l 1
 22 232 l 9
 89 682 l 1
 188 682 l 1
 128 328 l 1
 285 328 l 1
 285 682 l 1
 381 682 l 1
 381 328 l 9
 477 327 l 17
 477 232 l 1
 381 232 l 1
 381 1 l 1
EndSplineSet
EndChar
StartChar: five
Encoding: 53 53 21
Width: 457
Flags: HW
DStem: 84.9404 681.51 163.681 585.671 24 358 136 439
Back
55 530 m 0
 55 623.84 132.056 700 227 700 c 0
 321.944 700 399 623.84 399 530 c 0
 399 436.16 321.944 360 227 360 c 0
 132.056 360 55 436.16 55 530 c 0
18 194 m 0
 18 308.816 111.184 402 226 402 c 0
 340.816 402 434 308.816 434 194 c 0
 434 79.184 340.816 -14 226 -14 c 0
 111.184 -14 18 79.184 18 194 c 0
112 194 m 0
 112 256.928 163.072 308 226 308 c 0
 288.928 308 340 256.928 340 194 c 0
 340 131.072 288.928 80 226 80 c 0
 163.072 80 112 131.072 112 194 c 0
226 194 m 25
EndSplineSet
Fore
220 326.62 m 1
 24 358 l 9
 84.9404 681.51 l 1
 397.86 681.51 l 1
 397.86 586.03 l 1
 163.681 585.671 l 1
 136 439 l 1
 252 419.693 l 1
 338 407 435.44 331 435.44 205.73 c 1
 435.44 98 363 -14 226 -14 c 1
 128 -14 35 51 7 154 c 9
 100 179 l 17
 122 134 150 81.6504 226 81.6504 c 1
 302 81.6504 339.93 133.79 339.93 206.82 c 1
 339.93 272 289 318 220 326.62 c 1
EndSplineSet
EndChar
StartChar: six
Encoding: 54 54 22
Width: 455
Flags: HW
DStem: 260 710 347 669 94 408 199 400
Back
55 530 m 4
 55 623.84 132.056 700 227 700 c 4
 321.944 700 399 623.84 399 530 c 4
 399 436.16 321.944 360 227 360 c 4
 132.056 360 55 436.16 55 530 c 4
18 194 m 4
 18 308.816 111.184 402 226 402 c 4
 340.816 402 434 308.816 434 194 c 4
 434 79.184 340.816 -14 226 -14 c 4
 111.184 -14 18 79.184 18 194 c 4
112 194 m 4
 112 256.928 163.072 308 226 308 c 4
 288.928 308 340 256.928 340 194 c 4
 340 131.072 288.928 80 226 80 c 4
 163.072 80 112 131.072 112 194 c 4
226 194 m 29
EndSplineSet
Fore
338.979 190.56 m 1
 338.979 257 285.979 305.7 223.979 305.7 c 1
 163.979 305.7 113.979 256 113.979 192.77 c 1
 113.979 128 167.979 82.6299 224.979 82.6299 c 1
 290.979 82.6299 338.979 134 338.979 190.56 c 1
199 400 m 1
 208.396 401.48 213.398 402.07 223.979 402.07 c 1
 333.979 402.07 434.979 316 434.979 190.63 c 1
 434.979 86 352.979 -14 222.979 -14 c 1
 91.9785 -14 18 96 18 192 c 1
 18 279 71.5928 367.029 94 408 c 1
 260 710 l 9
 347 669 l 17
 199 400 l 1
EndSplineSet
EndChar
StartChar: seven
Encoding: 55 55 23
Width: 498
Flags: HW
HStem: 0 21G<115.6 220.56>
DStem: 341.88 585.16 481.14 681.64 115.6 0 220.56 0
Fore
226.62 681.64 m 1
 481.14 681.64 l 1
 220.56 0 l 1
 115.6 0 l 1
 341.88 585.16 l 1
 26.6396 585.16 l 1
 26.6396 681.64 l 1
 226.62 681.64 l 1
EndSplineSet
EndChar
StartChar: eight
Encoding: 56 56 24
Width: 470
Flags: HW
Back
12 504 m 4
 12 618.816 105.184 700 220 700 c 4
 334.816 700 428 618.816 428 504 c 4
 428 389.184 334.816 308 220 308 c 4
 105.184 308 12 389.184 12 504 c 4
106 504 m 4
 106 566.928 157.072 606 220 606 c 4
 282.928 606 334 566.928 334 504 c 4
 334 441.072 282.928 402 220 402 c 4
 157.072 402 106 441.072 106 504 c 4
220 504 m 29
11 194 m 4
 11 308.816 104.184 402 219 402 c 4
 333.816 402 427 308.816 427 194 c 4
 427 79.1836 333.816 -14 219 -14 c 4
 104.184 -14 11 79.1836 11 194 c 4
105 194 m 4
 105 256.928 156.072 308 219 308 c 4
 281.928 308 333 256.928 333 194 c 4
 333 131.072 281.928 80 219 80 c 4
 156.072 80 105 131.072 105 194 c 4
219 194 m 29
EndSplineSet
Fore
112.54 192 m 1
 112.54 127.564 165.713 81.5664 234.713 81.5664 c 1
 299.713 81.5664 356.675 127.564 356.675 188.852 c 1
 356.675 259.564 310.713 308.385 236.502 308.385 c 1
 170.713 308.385 111.892 256.614 112.54 192 c 1
123.961 508.363 m 1
 123.961 447 165.211 402 237 402 c 1
 305.211 402 347.972 446 347.972 508.215 c 1
 347.972 562.564 303 605.661 235.502 605.661 c 1
 166 605.661 123.961 557.564 123.961 508.363 c 1
235.502 700.859 m 1
 354 700.859 444.442 613 444.442 508.215 c 1
 444.442 417 395 375 370 353 c 1
 398 329 452.708 282.564 452.708 189 c 1
 452.708 64.5645 357 -14 234.713 -14.4355 c 1
 112 -14 16 69.5645 16 192 c 1
 21.7129 281.564 67 320 101 353 c 1
 72 380 27.4209 419 27.4209 508.312 c 1
 27.4209 613 119 700.859 235.502 700.859 c 1
EndSplineSet
EndChar
StartChar: nine
Encoding: 57 57 25
Width: 457
Flags: HW
HStem: 680 20G<152 282.5>
VStem: 5 96<495 510> 318 96<294 308>
Back
101.92 493.899 m 5
 101.92 433.47 148.88 380.02 216 380.02 c 5
 280.88 380.02 325.96 433.47 325.96 488.569 c 5
 325.96 557.47 273.88 605.12 212.88 605.12 c 5
 154.88 605.12 101.92 559.47 101.92 493.899 c 5
334.56 335.39 m 5
 306.88 297.47 254.88 284 216 284 c 5
 82.8799 284 5.2002 395.47 5.2002 493.01 c 5
 5.2002 608.47 97.8799 701.47 212.88 701.47 c 4
 355.88 701.47 431.883 577.719 436.375 445.47 c 4
 437.441 414.076 435.487 380.081 430.88 337.47 c 5
EndSplineSet
Fore
112 495.44 m 1
 112 429 165 380.3 227 380.3 c 1
 287 380.3 337 430 337 493.23 c 1
 337 558 283 603.37 226 603.37 c 1
 160 603.37 112 552 112 495.44 c 1
228 700 m 1
 359 700 432.979 590 432.979 494 c 1
 436.252 434.663 429 381 425 308.19 c 1
 423 166 284 50 169 -18.2803 c 9
 115 61 l 17
 200 116 328 188 329 296.04 c 9
 329 319.11 l 17
 310 300 274 283.93 227 283.93 c 1
 117 283.93 16 370 16 495.37 c 1
 16 600 98 700 228 700 c 1
EndSplineSet
EndChar
StartChar: colon
Encoding: 58 58 26
Width: 186
Flags: HW
Fore
30.6396 49.3594 m 0
 30.6396 84.335 59.0254 112.72 94 112.72 c 0
 128.975 112.72 157.36 84.335 157.36 49.3594 c 0
 157.36 14.3848 128.975 -14 94 -14 c 0
 59.0254 -14 30.6396 14.3848 30.6396 49.3594 c 0
30.6396 380.64 m 0
 30.6396 415.615 59.0254 444 94 444 c 0
 128.975 444 157.36 415.615 157.36 380.64 c 0
 157.36 345.665 128.975 317.28 94 317.28 c 0
 59.0254 317.28 30.6396 345.665 30.6396 380.64 c 0
EndSplineSet
EndChar
StartChar: semicolon
Encoding: 59 59 27
Width: 181
Flags: HW
DStem: 102 0 177 45 60 -96 123 -96
Fore
30.6396 380.64 m 0
 30.6396 415.615 59.0254 444 94 444 c 0
 128.975 444 157.36 415.615 157.36 380.64 c 0
 157.36 345.665 128.975 317.28 94 317.28 c 0
 59.0254 317.28 30.6396 345.665 30.6396 380.64 c 0
157 45 m 1
 103 -96 l 1
 40 -96 l 1
 82 0 l 1
 50 6 28 26 28 60 c 1
 28 96 48 124.459 89.7178 124.459 c 1
 138 124.459 157 90 157 45 c 1
EndSplineSet
EndChar
StartChar: less
Encoding: 60 60 28
Width: 384
Flags: HW
DStem: -1 352 111 351 236 36 354 36 236 662 354 662 -1 352 111 351
Fore
247 36 m 1
 10 352 l 1
 247 662 l 1
 365 662 l 1
 122 351 l 1
 365 36 l 1
 247 36 l 1
EndSplineSet
EndChar
StartChar: equal
Encoding: 61 61 29
Width: 425
Flags: HW
HStem: 206 96<26 401> 398 96<26 401>
Fore
26 302 m 1
 26 302 l 1
 401 302 l 1
 401 206 l 1
 26 206 l 1
 26 302 l 1
26 494 m 1
 26 494 l 1
 401 494 l 1
 401 398 l 1
 26 398 l 1
 26 494 l 1
EndSplineSet
EndChar
StartChar: greater
Encoding: 62 62 30
Width: 388
Flags: HW
DStem: 13 659 131 659 256 348 368 349 256 348 368 349 13 33 131 33
Fore
131 33 m 1
 13 33 l 1
 256 348 l 1
 13 659 l 1
 131 659 l 1
 368 349 l 1
 131 33 l 1
EndSplineSet
EndChar
StartChar: question
Encoding: 63 63 31
Width: 462
Flags: HW
HStem: 605 96<230 248>
VStem: 188 96<187 276> 353 96<512 524>
Back
124 512 m 0
 124 561.68 175.072 604 238 604 c 4
 300.928 604 352 561.68 352 512 c 0
 352 462.32 300.928 422 238 422 c 0
 175.072 422 124 462.32 124 512 c 0
24 512 m 0
 24 615.776 118.976 700 236 700 c 0
 353.024 700 448 615.776 448 512 c 0
 448 408.224 353.024 324 236 324 c 0
 118.976 324 24 408.224 24 512 c 0
EndSplineSet
Fore
163.64 49.3594 m 0
 163.64 84.335 192.025 112.72 227 112.72 c 0
 261.975 112.72 290.36 84.335 290.36 49.3594 c 0
 290.36 14.3848 261.975 -14 227 -14 c 0
 192.025 -14 163.64 14.3848 163.64 49.3594 c 0
275 276 m 1
 275 187 l 1
 179 187 l 1
 180 251 179 278 179 278 c 1
 179 391 344 425 344 512 c 1
 344 559 298 605 227 605 c 1
 153 605 115 557 115 505 c 1
 14 522 l 1
 26 624 112 700 224 701 c 1
 332 700 440 626 440 514 c 1
 440 369 275 334 275 276 c 1
EndSplineSet
EndChar
StartChar: at
Encoding: 64 64 32
Width: 746
Flags: HW
HStem: -16 78<357 368> 182 78<357 368> 204 78<567 583> 424 78<357 368> 622 78<357 368>
VStem: -1 78<342 353> 197 78<342 353> 439 78<342 353> 637 78<342 353>
Back
517 342 m 4
 517 375.12 543.88 402 577 402 c 4
 610.12 402 637 375.12 637 342 c 4
 637 308.88 610.12 282 577 282 c 4
 543.88 282 517 308.88 517 342 c 4
439 342 m 0
 439 418.176 500.824 480 577 480 c 0
 653.176 480 715 418.176 715 342 c 0
 715 265.824 653.176 204 577 204 c 0
 500.824 204 439 265.824 439 342 c 0
275 342 m 0
 275 387 312 424 357 424 c 0
 402 424 439 387 439 342 c 0
 439 297 402 260 357 260 c 0
 312 260 275 297 275 342 c 0
77 342 m 0
 77 497 202 622 357 622 c 0
 512 622 637 497 637 342 c 0
 637 187 512 62 357 62 c 0
 202 62 77 187 77 342 c 0
-1 342 m 0
 -1 540 159 700 357 700 c 0
 555 700 715 540 715 342 c 0
 715 144 555 -16 357 -16 c 0
 159 -16 -1 144 -1 342 c 0
197 342 m 0
 197 430 269 502 357 502 c 0
 445 502 517 430 517 342 c 0
 517 254 445 182 357 182 c 0
 269 182 197 254 197 342 c 0
EndSplineSet
Fore
533.376 112.943 m 8xbf80
 582.349 52.1143 l 0
 523.331 9.25488 450.664 -16 372 -16 c 0
 174 -16 14 144 14 342 c 0
 14 540 174 700 372 700 c 0
 570 700 730 540 730 342 c 0
 730 260 660.5 204 596 204 c 0xbf80
 561 204 521.12 215.693 496.5 242.613 c 1
 468 205 422.248 182 372 182 c 0xdf80
 284 182 212 254 212 342 c 0
 212 430 284 502 372 502 c 0
 460 502 532 430 532 342 c 0
 532 300 568.5 282 593 282 c 0
 619.5 282 652 304 652 342 c 0
 652 497 527 622 372 622 c 0
 217 622 92 497 92 342 c 0
 92 187 217 62 372 62 c 0
 432.164 62 487.808 80.833 533.376 112.943 c 8xbf80
290 342 m 0
 290 297 327 260 372 260 c 0xdf80
 417 260 454 297 454 342 c 0
 454 387 417 424 372 424 c 0
 327 424 290 387 290 342 c 0
EndSplineSet
EndChar
StartChar: A
Encoding: 65 65 0
Width: 614
Flags: HW
HStem: 0 21G<482 587> 213 95<215 404> 662 20G<246 342>
DStem: 246 682 183 213 0.692383 0.0830078 104.928 0.0830078 404 213 342 682 482 0 587 0
Fore
307 565 m 1
 228 308 l 1
 384 308 l 1
 307 565 l 1
417 213 m 0
 196 213 l 0
 117.928 0.0830078 l 0
 13.6924 0.0830078 l 1
 259 682 l 0
 259 682 317.56 682 355 682 c 17
 600 0 l 1
 495 0 l 1
 417 213 l 0
EndSplineSet
KernsSLIF: 86 -100 0 0 84 -46 0 0
EndChar
StartChar: B
Encoding: 66 66 1
Width: 513
Flags: HW
HStem: 0 21G<52 148 148 196>
Fore
120.02 314.9 m 1
 120.02 96.54 l 1
 357 96.54 402.939 134 402.939 202.88 c 0
 402.939 258 354 314.9 120.02 314.9 c 1
120.02 585.8 m 1
 120.02 412.03 l 1
 300 412.03 371 471 371 514 c 1
 371 549 360 585.8 120.02 585.8 c 1
26 681.34 m 0
 122 681.34 l 1
 170.05 681.34 l 1
 405 682 466.479 597 466.479 513.89 c 1
 466.479 423 364 366 291 366 c 1
 440 366 497.149 283 497.149 200.25 c 1
 497.149 111 475 0 170 0 c 1
 122 0 l 1
 26 0 l 1
 26 681.34 l 0
EndSplineSet
KernsSLIF:
EndChar
StartChar: C
Encoding: 67 67 2
Width: 546
Flags: HW
HStem: -14 96<288 305> 604 96<289 305>
Fore
523.751 110.979 m 0
 479.749 37.6387 408.172 -14 300.225 -14 c 1
 94.1973 -14 12 182 12 350 c 1
 12 500 93.1299 700 301.293 700 c 0
 406.117 700 470.812 645.919 514.098 579.716 c 9
 480.315 562.881 427.476 536.549 427.476 536.549 c 0
 398.565 576.677 357.016 604 301.293 604 c 1
 167.855 604 108.48 462 108.48 350 c 1
 108.48 228 172.125 82 300.225 82 c 1
 362.821 82 418.071 117.097 447.405 170 c 9
 477.18 146.981 523.751 110.979 523.751 110.979 c 0
EndSplineSet
EndChar
StartChar: D
Encoding: 68 68 3
Width: 516
Flags: HW
HStem: 0 21G<26 122> 588 94<122 149.336>
VStem: 26 97<0 588> 405 90<350 369>
Fore
405 350 m 1
 405 454 302 588 123 588 c 1
 124 94 l 1
 292 94 405 226 405 350 c 1
495 350 m 1
 495 80 282.516 -8.03711 122 0 c 1
 26 0 l 1
 26 682 l 1
 122 682 l 1
 354 682 495 524 495 350 c 1
EndSplineSet
EndChar
StartChar: E
Encoding: 69 69 4
Width: 480
Flags: HW
HStem: 0 96<122 455> 302 96<122 455> 586 96<26 455>
VStem: 26 96<0 302 0 586>
Fore
26 682 m 0
 455 682 l 1
 455 586 l 0
 122 586 l 0
 122 398 l 1
 455 398 l 1
 455 302 l 0
 122 302 l 0
 122 96 l 0
 455 96 l 0
 455 0 l 0
 26 0 l 1
 26 682 l 0
EndSplineSet
KernsSLIF: 82 19 0 0
EndChar
StartChar: F
Encoding: 70 70 5
Width: 481
Flags: HW
HStem: 0 21G<26 122> 303 96<122 455> 586 96<26 455>
VStem: 26 96<0 303 0 586>
Fore
26 682 m 0
 455 682 l 1
 455 586 l 0
 122 586 l 0
 122 399 l 1
 455 399 l 1
 455 303 l 0
 122 303 l 1
 122 0 l 1
 26 0 l 1
 26 682 l 0
EndSplineSet
EndChar
StartChar: G
Encoding: 71 71 6
Width: 589
Flags: HW
HStem: -14 96<297 313> 604 96<298 313>
Fore
526.526 110.979 m 1
 482.526 37.6387 410.947 -14 303 -14 c 1
 96.9717 -14 14.7754 181.999 14.7754 350 c 1
 14.7754 500 95.9053 700 304.068 700 c 0
 408.892 700 473.586 645.918 516.876 579.715 c 9
 483.086 562.88 430.246 536.549 430.246 536.549 c 0
 401.34 576.677 359.791 604 304.068 604 c 1
 170.63 604 111.255 462 111.255 350 c 1
 111.255 227.999 174.9 82 303 82 c 1
 365.596 82 405.195 122.132 442.176 169.999 c 0
 454.526 185.979 452.526 212.979 452.526 232.979 c 1
 272.526 232.979 l 1
 272.526 328.979 l 1
 566.526 328.979 l 1
 566.526 232.979 l 1
 566.526 194.979 553.526 161.979 526.526 110.979 c 1
EndSplineSet
KernsSLIF: 84 -32 0 0
EndChar
StartChar: H
Encoding: 72 72 7
Width: 506
Flags: HW
HStem: 0 21G<26 122 383 479> 301 96<122 383> 662 20G<26 122 383 479>
VStem: 26 96<0 301 0 682> 383 96<0 682>
Fore
26 682 m 0
 122 682 l 1
 122 397 l 1
 383 397 l 1
 383 682 l 1
 479 682 l 1
 479 0 l 1
 383 0 l 1
 383 301 l 0
 122 301 l 1
 122 0 l 1
 26 0 l 1
 26 682 l 0
EndSplineSet
EndChar
StartChar: I
Encoding: 73 73 8
Width: 322
Flags: HW
HStem: 0 96<18 105 200 288> 586 96<18 105 105 288>
VStem: 104 96<96 586>
Fore
209 0 m 0
 113 0 l 1
 26 0 l 1
 26 96 l 1
 112 96 l 1
 113 586 l 1
 26 586 l 1
 26 682 l 1
 113 682 l 0
 209 682 l 1
 296 682 l 1
 296 586 l 1
 209 586 l 1
 208 94 l 1
 296 94 l 1
 296 0 l 1
 209 0 l 0
EndSplineSet
EndChar
StartChar: J
Encoding: 74 74 9
Width: 543
Flags: HW
HStem: -10 96<185 193> 586 96<188 300 188 508>
VStem: 300 96<222 586>
Fore
11 182 m 0
 100 224 l 1
 122 171 149 86 200 86 c 1
 290 86 311 153 311 252 c 1
 311 586 l 1
 199 586 l 1
 199 682 l 1
 519 682 l 1
 519 586 l 1
 407 586 l 1
 407 250 l 1
 407 72 338 -10 198 -10 c 1
 56 -10 29 135 11 182 c 0
EndSplineSet
EndChar
StartChar: K
Encoding: 75 75 10
Width: 512
Flags: HW
HStem: 0 21G<26 134 375 500> 662 20G<26 136 374 502>
VStem: 26 108<0 295 0 682>
DStem: 374 682 502 682 136 404 228 350
Fore
26 682 m 0
 136 682 l 1
 136 404 l 1
 374 682 l 1
 502 682 l 1
 228 350 l 1
 500 0 l 1
 375 0 l 1
 134 295 l 1
 134 314.7 134 19.7 134 0 c 1
 26 0 l 1
 26 682 l 0
EndSplineSet
EndChar
StartChar: L
Encoding: 76 76 11
Width: 493
Flags: HW
HStem: 0 97<135 466> 662 20G<26 136>
VStem: 26 110<0 682>
Fore
26 682 m 1
 136 682 l 1
 136 97 l 1
 466 97 l 1
 466 0 l 1
 26 0 l 1
 26 682 l 1
EndSplineSet
EndChar
StartChar: M
Encoding: 77 77 1
Width: 654
Flags: HW
HStem: 0 21G<11 107 542 638> 662 20G<68 212 441 581>
DStem: 68 682 152 552 11 0 107 0 152 552 212 682 278.317 154 327 319 441 682 497 552 327 319 372 154 497 552 581 682 542 0 638 0
Fore
11 0 m 1
 68 682 l 2
 212 682 l 1
 327 319 l 2
 441 682 l 1
 581 682 l 1
 638 0 l 1
 542 0 l 2
 497 552 l 1
 372 154 l 0
 278.317 154 l 1
 152 552 l 0
 107 0 l 1
 11 0 l 1
EndSplineSet
EndChar
StartChar: N
Encoding: 78 78 2
Width: 546
Flags: HW
HStem: 0 21G<26 123 424 517.683> 662 20G<26 124 421.683 517.683>
VStem: 26 97<0 500>
DStem: 123 500 124 682 424 0 422 195
Fore
26 0 m 1
 26 682 l 2
 124 682 l 1
 422 195 l 2
 421.683 682 l 1
 517.683 682 l 1
 517.683 0 l 0
 424 0 l 1
 123 500 l 0
 123 0 l 1
 26 0 l 1
EndSplineSet
EndChar
StartChar: O
Encoding: 79 79 3
Width: 566
Flags: HW
HStem: -14 96<274 278> 604 96<275 277>
VStem: 4 96<350 371> 442 96<350 371>
Fore
452 350 m 1
 454 462 404 604 285 604 c 1
 160 604 110 462 110 350 c 1
 110 228 164 82 284 82 c 1
 400 82 452 230 452 350 c 1
14 350 m 1
 14 500 90 700 285 700 c 1
 484 700 548 500 548 350 c 1
 548 180 480 -14 284 -14 c 1
 91 -14 14 182 14 350 c 1
EndSplineSet
KernsSLIF: 65 -46 0 0 84 -53 0 0
EndChar
StartChar: P
Encoding: 80 80 4
Width: 480
Flags: HW
HStem: 0 21G<26 127> 284 92<127 164.202> 601 81<122 160.126>
VStem: 26 101<0 284 0 601> 366 96<486 497>
Fore
127 376 m 1
 254 378 366 392 366 486 c 1
 366.102 582.071 230 601 127 601 c 1
 127 376 l 1
26 682 m 0
 122 682 l 1
 298 682 462 618 462 486 c 0
 462 323.892 296 284 127 284 c 1
 127 87 l 0
 127 87 l 0
 127 0 l 0
 26 0 l 1
 26 682 l 0
EndSplineSet
EndChar
StartChar: Q
Encoding: 81 81 5
Width: 593
Flags: HW
HStem: -14 96<268 289> 604 96<255 284>
VStem: 0 96<350 371> 438 96<350 371>
DStem: 258 216 322 290 360.892 122 408.688 210
Fore
450 350 m 1
 450 444 408 604 282 604 c 1
 152 604 108 444 108 350 c 1
 108 250 180 82 294 82 c 1
 326.27 82 352.306 95.9072 372.892 122 c 1
 270 216 l 1
 334 290 l 1
 420.688 210 l 1
 435 246 450 304 450 350 c 1
12 350 m 1
 12 492 75 700 285 700 c 1
 487 700 546 476 546 350 c 1
 546 282.575 519 184 492 134 c 1
 579 54 l 1
 515 -14 l 1
 444 52 l 1
 405.323 14.958 364 -14 288 -14 c 1
 95 -14 12 192 12 350 c 1
EndSplineSet
EndChar
StartChar: R
Encoding: 82 82 6
Width: 496
Flags: HMW
Fore
122 405 m 1
 228 405 363 404 363 494 c 1
 363 581 225 586 122 586 c 1
 122 405 l 1
26 682 m 0
 122 682 l 1
 298 682 459 626 459 494 c 0
 459 370 351.779 328.085 238 310.468 c 1
 484 0 l 1
 367 0 l 1
 122 303 l 1
 122 87 l 0
 122 87 l 0
 122 0 l 0
 26 0 l 1
 26 682 l 0
EndSplineSet
EndChar
StartChar: S
Encoding: 83 83 7
Width: 497
Flags: HW
HStem: -14 96<240 257> 604 96<208 242>
VStem: 17 96<498.913 516> 367 96<186 195>
Fore
11 142 m 1
 89 199 l 1
 131.406 133.182 186 82 251 82 c 1
 314 82 378 116 378 186 c 1
 378 230 314.454 292.062 219 320 c 0
 137 344 28 393 28 513 c 1
 28 629 140 700 240 700 c 1
 346 700 420 630 452 579 c 1
 367 534 l 1
 347 576 296 604 238 604 c 1
 184 604 124 580 124 512.592 c 1
 124 434 217 422 271 400 c 1
 341 376 474 312 474 186 c 1
 474 74 370 -14 251 -14 c 1
 152 -14 90.0137 35.0283 11 142 c 1
EndSplineSet
EndChar
StartChar: T
Encoding: 84 84 8
Width: 563
Flags: HW
HStem: 0 21G<239 335> 586 96<26 239 26 538>
VStem: 239 96<0 585>
Fore
26 682 m 0
 538 682 l 1
 538 585 l 0
 335 585 l 1
 335 0 l 1
 239 0 l 1
 239 586 l 1
 26 586 l 1
 26 682 l 0
EndSplineSet
KernsSLIF: 65 -52 0 0
EndChar
StartChar: U
Encoding: 85 85 9
Width: 549
Flags: HW
HStem: -14 96<233 251> 662 20G<26 122 424 522>
VStem: 26 96<310 682> 425 97<0 682>
Fore
424 682 m 1
 522 682 l 1
 522 0 l 1
 425 0 l 1
 425 139 l 1
 425 109 362 -14 240 -14 c 1
 96 -14 26 146 26 310 c 1
 26 682 l 1
 122 682 l 1
 122 310 l 1
 122 198 164 82 239 82 c 1
 322 82 425 246 425 507 c 1
 424 682 l 1
EndSplineSet
EndChar
StartChar: V
Encoding: 86 86 10
Width: 561
Flags: HW
HStem: 0 21G<214 352> 662 20G<15 129 441 549>
DStem: 15 682 129 682 214 0 283 122 441 682 549 682 283 122 352 0
Fore
441 682 m 1
 549 682 l 1
 352 0 l 1
 214 0 l 1
 15 682 l 1
 129 682 l 1
 283 122 l 1
 441 682 l 1
EndSplineSet
KernsSLIF: 65 -114 0 0 69 -33 0 0
EndChar
StartChar: W
Encoding: 87 87 11
Width: 644
Flags: HW
HStem: 0 21G<57 197 426 570> 662 20G<0 96 531 627>
DStem: 0 682 96 682 57 0 141 130 266 528 311 363 141 130 197 0 311 363 359.683 528 426 0 486 130 531 682 627 682 486 130 570 0
Fore
637 682 m 1
 580 0 l 2
 436 0 l 1
 321 363 l 2
 207 0 l 1
 67 0 l 1
 10 682 l 1
 106 682 l 2
 151 130 l 1
 276 528 l 0
 369.683 528 l 1
 496 130 l 0
 541 682 l 1
 637 682 l 1
EndSplineSet
KernsSLIF: 65 -26 0 0
EndChar
StartChar: X
Encoding: 88 88 12
Width: 529
Flags: HW
HStem: 0 21G<0 111 395 511> 662 20G<-2 110 396 508>
DStem: -2 682 110 682 201 350 256 438 201 350 254 252 0 0 111 0 254 252 310 350 395 0 511 0 396 682 508 682 256 438 310 350
Fore
8 682 m 0
 120 682 l 1
 266 438 l 1
 406 682 l 1
 518 682 l 1
 320 350 l 1
 521 0 l 1
 405 0 l 1
 264 252 l 1
 121 0 l 1
 10 0 l 1
 211 350 l 1
 8 682 l 0
EndSplineSet
EndChar
StartChar: Y
Encoding: 89 89 13
Width: 535
Flags: HW
HStem: 0 21G<195 302> 662 20G<-2 114 400 516>
VStem: 195 107<0 350>
DStem: -2 682 114 682 195 350 254 441
Fore
8 682 m 1
 124 682 l 1
 264 441 l 1
 410 682 l 1
 526 682 l 1
 312 350 l 1
 312 0 l 1
 205 0 l 1
 205 350 l 1
 8 682 l 1
EndSplineSet
KernsSLIF: 97 -59 0 0
EndChar
StartChar: Z
Encoding: 90 90 14
Width: 572
Flags: HW
HStem: 0 85<167 537> 599 83<12 370>
DStem: 370 599 530 682 3 0 167 85
Fore
23 682 m 1
 11.2998 682 529.3 682 541 682 c 1
 178 85 l 1
 548 85 l 1
 548 0 l 1
 14 0 l 1
 381 599 l 1
 23 599 l 1
 23 682 l 1
EndSplineSet
EndChar
StartChar: bracketleft
Encoding: 91 91 15
Width: 252
Flags: HW
HStem: -11 89<121 226> 629 96<26 226>
VStem: 26 95<-11 629>
Fore
226 -11 m 0
 26 -11 l 1
 26 725 l 0
 226 725 l 1
 226 629 l 1
 121 629 l 1
 121 78 l 1
 226 78 l 1
 226 -11 l 0
EndSplineSet
EndChar
StartChar: backslash
Encoding: 92 92 16
Width: 489
Flags: HW
HStem: 0 21G<336 462>
DStem: 0 723 126 723 336 0 462 0
Fore
346 0 m 1
 10 723 l 1
 136 723 l 0
 472 0 l 1
 346 0 l 1
EndSplineSet
EndChar
StartChar: bracketright
Encoding: 93 93 17
Width: 256
Flags: HW
HStem: -14 89<26 226> 626 96<26 131>
VStem: 131 95<75 722>
Fore
26 -14 m 0
 26 75 l 1
 131 75 l 1
 131 626 l 1
 26 626 l 1
 26 722 l 1
 226 722 l 0
 226 -14 l 1
 26 -14 l 0
EndSplineSet
EndChar
StartChar: asciicircum
Encoding: 94 94 18
Width: 435
Flags: HW
HStem: 679 20G<148 251>
DStem: 148 699 201 626 -1 539 124 539 201 626 251 699 282 536 403 536
Fore
420 536 m 1
 299 536 l 1
 218 626 l 1
 141 539 l 0
 16 539 l 1
 165 699 l 1
 268 699 l 1
 420 536 l 1
EndSplineSet
EndChar
StartChar: underscore
Encoding: 95 95 19
Width: 582
Flags: HW
HStem: -127 95<26 556.742>
Fore
26 -128 m 1
 26 -32 l 1
 557 -32 l 1
 557 -127 l 1
 380.288 -127 203.516 -128 26 -128 c 1
EndSplineSet
EndChar
StartChar: grave
Encoding: 96 96 20
Width: 249
Flags: HW
HStem: 609 119<23 220>
DStem: 23 728 137 728 105 609 220 609
Fore
220 609 m 1
 105 609 l 2
 23 728 l 2
 137 728 l 1
 220 609 l 1
EndSplineSet
EndChar
StartChar: a
Encoding: 97 97 21
Width: 510
Flags: HW
HStem: 0 21G<376 478>
DStem: 338 112 318.223 451.697 376 0 478 0
Fore
353 112 m 17
 347.593 57.1211 263 -14 180.54 -14 c 1
 53 -14 15 56 15 162.32 c 0
 15 306 169.159 403.572 261.881 438.332 c 0
 277 444 296 451.697 333.223 451.697 c 1
 493 0 l 1
 391 0 l 1
 353 112 l 17
110.204 160.48 m 1
 110.204 106 141 82.4404 180.473 82.4404 c 0
 227 82.4404 293 126 293 254 c 0
 293 288.458 279.696 332.327 273 344 c 1
 221.964 315.202 110.204 252 110.204 160.48 c 1
EndSplineSet
KernsSLIF: 118 -60 0 0 116 -46 0 0
EndChar
StartChar: b
Encoding: 98 98 22
Width: 446
Flags: HW
HStem: 0 21G<26 122> 662 20G<26 122>
VStem: 26 96<0 24.0654 230 682>
Fore
122 0 m 17
 26 0 l 1
 26 42 l 1
 26 230 l 1
 26 682 l 1
 122 682 l 1
 122 386.557 l 17
 158.571 419.509 200.799 442.12 240.46 442.12 c 0
 345.086 442.12 424 340.514 424 215.32 c 0
 424 90.126 368.88 -14 221.46 -14 c 1
 189 -14 122 24.0654 122 24.0654 c 0
 122 24.0654 122 9.38574 122 0 c 17
328.796 213.48 m 0
 328.796 285.814 298.885 344.52 244.527 344.52 c 1
 175 330 123.259 266 123.259 213.48 c 1
 123.259 144 171.169 82.4404 225.527 82.4404 c 0
 263.823 82.4404 328.796 99.5996 328.796 213.48 c 0
EndSplineSet
EndChar
StartChar: c
Encoding: 99 99 23
Width: 392
Flags: HW
Fore
360 380 m 9
 338.16 352.7 304 310 304 310 c 0
 290 324 254 344.52 205.473 344.52 c 1
 151.115 344.52 107.204 285.814 107.204 213.48 c 0
 107.204 99.5996 189.177 81.4404 227.473 81.4404 c 0
 258.493 81.4404 301.414 109.488 320.529 139.615 c 9
 378 68 l 1
 366 40 283 -15 231.54 -15 c 1
 84.1201 -15 12 90.126 12 215.32 c 0
 12 340.514 104.914 442.12 209.54 442.12 c 0
 266 442.12 323.429 412.952 360 380 c 9
EndSplineSet
EndChar
StartChar: d
Encoding: 100 100 24
Width: 442
Flags: HW
HStem: 0 21G<380 476> 662 20G<380 476>
VStem: 380 96<0 24.0654 386 682>
Fore
318 0 m 9
 318 9.38574 318 24.0654 318 24.0654 c 0
 318 24.0654 249 -14 218.54 -14 c 1
 71.1201 -14 16 90.126 16 215.32 c 0
 16 340.514 94.9141 442.12 199.54 442.12 c 0
 239.201 442.12 281.429 419.509 318 386.557 c 9
 318 682 l 1
 414 682 l 1
 414 230 l 1
 414 42 l 1
 414 0 l 1
 318 0 l 9
111.204 213.48 m 0
 111.204 99.5996 176.177 82.4404 214.473 82.4404 c 0
 268.831 82.4404 316.741 144 316.741 213.48 c 1
 316.741 266 265 330 195.473 344.52 c 1
 141.115 344.52 111.204 285.814 111.204 213.48 c 0
EndSplineSet
EndChar
StartChar: e
Encoding: 101 101 25
Width: 445
Flags: HW
HStem: 170 96<111 414>
Fore
118.407 266 m 0
 317.246 266 l 0
 305 306 275 344.52 217.473 344.52 c 1
 163 344.52 129 306 118.407 266 c 0
114.93 170 m 0
 132.91 94.7451 184.692 81.4404 217.473 81.4404 c 0
 248.493 81.4404 290 103 309.529 123.615 c 9
 377 55 l 1
 349 26 305 -14 217.54 -14 c 1
 93 -14 15 90.126 15 215.32 c 0
 15 340.514 91 442.12 217.54 442.12 c 1
 337 442.12 396.945 352.018 416.007 266 c 0
 423.06 234.176 419.053 207.44 421 170 c 17
 114.93 170 l 0
416.007 266 m 0
EndSplineSet
KernsSLIF: 116 -26 0 0
EndChar
StartChar: f
Encoding: 102 102 26
Width: 448
Flags: HW
HStem: 0 21G<131 227> 338 96<28 131 227 327> 662 20G<131 227>
VStem: 131 96<434 682>
Fore
225 657.935 m 17,0,0
225.183 338 m 0,0,0
 225 0 l 1,2,-1
 129 0 l 1,1,-1
 129 338 l 0,0,0
 26 338 l 1,2,-1
 26 434 l 1,1,-1
 129 434 l 0,0,0
 129 682 l 1,1,-1
 225 682 l 9,0,0
 225 672.614 225 657.935 225 657.935 c 0,0,0
 225 657.935 276 696 324.46 696 c 1,1,2
 369.607 696 406.098 686.234 435 669.088 c 9,0,0
 377 588.662 l 17,0,0
 360.271 597.243 342.599 599.56 328.527 599.56 c 0,1,2
 274.169 599.56 225.259 538 225.259 468.52 c 1,0,0
 225.235 434 l 0,0,0
 381 434 l 5,2,-1
 381 338 l 5,1,-1
 225.183 338 l 0,0,0
EndSplineSet
KernsSLIF: 97 -39 0 0 110 -33 0 0 121 -20 0 0 116 -1 0 0 117 -40 0 0 111 -20 0 0
EndChar
StartChar: g
Encoding: 103 103 27
Width: 438
Flags: HW
HStem: 416 20G<302 398>
Fore
316 24.0654 m 1
 316 24.0654 248 -14 216.54 -14 c 1
 69.1201 -14 14 90.126 14 215.32 c 0
 14 340.514 92.9141 442.12 197.54 442.12 c 0
 237.201 442.12 279.429 419.509 316 386.557 c 9
 316 436 l 1
 412 436 l 1
 412 230 l 1
 412 42 l 1
 412 0 l 1
 412 -136 303 -220 216 -220 c 1
 68.5801 -220 22 -108 13.46 -46.6797 c 0
 13.46 -46.6797 71.5342 -47.8018 108.664 -48.5195 c 17
 116 -100 173.637 -123.56 211.933 -123.56 c 0
 269 -123.56 316.201 -60 316.201 11.4805 c 0
 316.201 15.5547 316.156 19.7871 316 24.0654 c 1
109.204 213.48 m 0
 109.204 99.5996 174.177 82.4404 212.473 82.4404 c 0
 266.831 82.4404 314.741 144 314.741 213.48 c 1
 314.741 266 263 330 193.473 344.52 c 1
 139.115 344.52 109.204 285.814 109.204 213.48 c 0
EndSplineSet
EndChar
StartChar: h
Encoding: 104 104 28
Width: 450
Flags: HW
HStem: 0 21G<26 122 328 425> 662 20G<26 122>
VStem: 26 96<0 682> 328 96<0 215>
Fore
122 0 m 17
 26 0 l 1
 26 682 l 1
 122 682 l 1
 122 386.557 l 17
 158.571 419.509 200.799 442.12 240.46 442.12 c 0
 345.086 442.12 424 340.514 424 215.32 c 0
 425 -0 l 1
 328 0 l 0
 328.796 213.48 l 0
 328.796 285.814 298.885 344.52 244.527 344.52 c 1
 184 344.52 122.259 266 122.259 213.48 c 0
 122.162 142.299 122 71.2467 122 0 c 17
EndSplineSet
EndChar
StartChar: i
Encoding: 105 105 29
Width: 250
Flags: HW
HStem: 416 20G<38 134> 526 96<38 134>
VStem: 38 96<526 622>
Fore
25.7959 132.16 m 1
 26 436 l 1
 122 436 l 0
 122 134 l 0
 122 83.2783 167.796 77.4805 189.796 77.4805 c 1
 225.796 77.4805 l 1
 225.796 -14.5195 l 1
 189.796 -14.5195 l 1
 89.7959 -14.5195 25.7959 53.4805 25.7959 132.16 c 1
26 622 m 1
 122 622 l 1
 122 526 l 1
 26 526 l 1
 26 622 l 1
EndSplineSet
EndChar
StartChar: j
Encoding: 106 106 30
Width: 355
Flags: HW
HStem: -220 94<165 170> -220 170<-7 165> 416 20G<232 329> 526 96<232 328>
VStem: 231 98<0 436 526 622>
Fore
232 622 m 1x38
 328 622 l 1
 328 526 l 1
 232 526 l 1
 232 622 l 1x38
-7 -50 m 9x78
 89 -48 l 1
 97 -88 105 -126 165 -126 c 1
 225 -126 231 -28.6357 231 0 c 1
 232 436 l 1
 329 436 l 0
 329 0 l 1
 329 -152 243 -220 165 -220 c 1xb8
 49 -220 5 -114 -7 -50 c 9x78
EndSplineSet
EndChar
StartChar: k
Encoding: 107 107 31
Width: 402
Flags: HW
HStem: 0 21G<26 122 259.28 387.264> 416 20G<258 386> 662 20G<26 122>
DStem: 122.213 159.844 199.226 217.768 259.28 0 387.264 0 258 436 386 436 121.741 276.076 199.226 217.768
Fore
199.226 217.768 m 1
 387.264 0 l 1
 259.28 0 l 1
 122.213 159.844 l 1
 122 0 l 17
 26 0 l 1
 26 682 l 1
 122 682 l 1
 121.741 276.076 l 17
 258 436 l 1
 386 436 l 1
 199.226 217.768 l 1
EndSplineSet
KernsSLIF: 119 -52 0 0
EndChar
StartChar: l
Encoding: 108 108 32
Width: 246
Flags: HW
HStem: -14 92<178.663 230> 662 20G<32 128>
VStem: 32 96<134 681.733>
Fore
122.204 134.52 m 0
 122.204 83.7979 166 78 188 78 c 1
 224 78 l 1
 224 -14 l 1
 188 -14 l 1
 88 -14 26 54 26 132.68 c 1
 26 682 l 1
 122 682 l 1
 122.124 499.398 122.204 316.926 122.204 134.52 c 0
EndSplineSet
EndChar
StartChar: m
Encoding: 109 109 33
Width: 667
Flags: HW
HStem: 0 21G<26 122 288 384 546 642> 416 20G<26 122>
VStem: 26 96<0 436>
Fore
384.125 240.26 m 0
 384 215.32 l 0
 384 0 l 1
 288 0 l 1
 287.796 213.48 l 0
 287.796 285.814 272.885 344.52 218.527 344.52 c 1
 159 344.52 122.259 266 122.259 213.48 c 0
 122.259 213.48 122.101 83.2568 122 0 c 17
 26 0 l 1
 26 436 l 1
 122 436 l 1
 122 386.557 l 17
 152 414 178 442.12 214.46 442.12 c 0
 272.905 442.12 318.958 410.415 348.227 360.604 c 0
 375 391.557 l 1
 405 419 436 442.12 472.46 442.12 c 0
 577.086 442.12 642 340.514 642 215.32 c 0
 642 0 l 1
 546 0 l 0
 545.796 213.48 l 0
 545.796 285.814 530.885 344.52 476.527 344.52 c 1
 429 344.52 384.125 278 384.125 240.26 c 0
EndSplineSet
EndChar
StartChar: n
Encoding: 110 110 34
Width: 450
Flags: HW
HStem: 0 21G<26 122 328 424> 416 20G<26 122>
VStem: 26 96<0 24.0654 230 436>
Fore
122 24.0654 m 0
 122 24.0654 122 9.38574 122 0 c 17
 26 0 l 1
 26 42 l 1
 26 230 l 1
 26 436 l 1
 122 436 l 1
 122 386.557 l 17
 158.571 419.509 200.799 450.12 240.46 450.12 c 0
 345.086 450.12 424 340.514 424 215.32 c 0
 424 0 l 1
 328 0 l 0
 327.796 213.48 l 0
 327.796 285.814 298.885 352.52 244.527 352.52 c 1
 183 352.52 122.259 266 122.259 213.48 c 1
 122 24.0654 l 0
EndSplineSet
EndChar
StartChar: o
Encoding: 111 111 35
Width: 490
Flags: HW
HStem: -14 96<282 295> 346 96<282 295>
VStem: 54 96<214 227> 414 96<214 227>
Fore
17 214 m 0
 17 340 119 442 245 442 c 0
 371 442 473 340 473 214 c 0
 473 88 371 -14 245 -14 c 0
 119 -14 17 88 17 214 c 0
113 214 m 0
 113 141 172 82 245 82 c 0
 318 82 377 141 377 214 c 0
 377 287 318 346 245 346 c 0
 172 346 113 287 113 214 c 0
EndSplineSet
EndChar
StartChar: p
Encoding: 112 112 36
Width: 445
Flags: HW
HStem: -206 21G<20 116> 416 20G<20 116>
VStem: 20 96<-206 24.0654 230 436>
Fore
122 -206 m 17
 26 -206 l 1
 26 42 l 1
 26 230 l 1
 26 436 l 1
 122 436 l 1
 122 386.557 l 17
 158.571 419.509 200.799 442.12 240.46 442.12 c 0
 345.086 442.12 424 340.514 424 215.32 c 0
 424 90.126 368.88 -14 221.46 -14 c 1
 190 -14 122 24.0654 122 24.0654 c 0
 122 24.0654 122 -116.274 122 -206 c 17
328.796 213.48 m 0
 328.796 285.814 298.885 344.52 244.527 344.52 c 1
 175 330 123.259 266 123.259 213.48 c 1
 123.259 144 171.169 82.4404 225.527 82.4404 c 0
 263.823 82.4404 328.796 99.5996 328.796 213.48 c 0
EndSplineSet
EndChar
StartChar: q
Encoding: 113 113 37
Width: 438
Flags: HW
HStem: 416 20G<303 399>
VStem: 303 96<-88 21 386 436>
Fore
470 -220 m 1
 379 -220 317 -174 317 -88 c 1
 316 24.0654 l 0
 316 24.0654 249 -14 216.54 -14 c 1
 69.1201 -14 14 90.126 14 215.32 c 0
 14 340.514 92.9141 442.12 197.54 442.12 c 0
 237.201 442.12 279.429 419.509 316 386.557 c 9
 316 436 l 1
 412 436 l 1
 412 230 l 1
 412 42 l 1
 412 -72 l 1
 412 -110 435 -124 470 -124 c 1
 470 -220 l 1
96.2041 213.48 m 0
 96.2041 99.5996 161.177 82.4404 199.473 82.4404 c 0
 253.831 82.4404 301.741 144 301.741 213.48 c 1
 301.741 266 250 330 180.473 344.52 c 1
 126.115 344.52 96.2041 285.814 96.2041 213.48 c 0
EndSplineSet
EndChar
StartChar: r
Encoding: 114 114 38
Width: 392
Flags: HW
HStem: 0 21G<26 122> 416 20G<26 122>
VStem: 26 96<0 436>
Fore
348 325 m 1
 337.239 332.198 262 344.52 244.527 344.52 c 1
 188 344.52 122.259 266 122.259 213.48 c 0
 122 0 l 17
 26 0 l 1
 26 436 l 1
 122 436 l 1
 122 386.557 l 17
 158.571 419.509 200.799 442.12 240.46 442.12 c 0
 270.108 442.12 355.691 429.543 380 415 c 1
 348 325 l 1
EndSplineSet
KernsSLIF: 101 -20 0 0
EndChar
StartChar: s
Encoding: 115 115 39
Width: 379
Flags: HW
HStem: -14 96<163 182>
Fore
188.06 170 m 0
 107.009 186.928 18.0596 231.56 18.0596 308.179 c 0
 18.0596 384.797 105.26 446.98 188.06 446.98 c 0
 260.06 446.98 334 392 354.434 346.836 c 1
 268.229 310.328 l 0
 259.872 330.599 213.761 351 189.06 351 c 0
 166.06 351 114.06 340 114.06 311 c 0
 114.06 278 157 274 189.06 267 c 0
 264.288 250.575 361.5 198 361.5 126.774 c 0
 361.5 48 270.06 -14 190 -14 c 0
 113.817 -14 24.71 38.3369 14.0771 106.402 c 9
 51.6338 110.275 110.375 121.623 110.375 116.335 c 0
 113.42 89.1865 162.06 82 188.06 82 c 0
 212.06 82 266.06 90 266.06 122 c 0
 266.06 150 212 165 188.06 170 c 0
EndSplineSet
EndChar
StartChar: t
Encoding: 116 116 40
Width: 404
Flags: HW
HStem: -14 92<304 340> 340 96<22 141 238 383>
VStem: 141 97<436 588>
Fore
135 340 m 4
 26 340 l 5
 26 436 l 5
 135 436 l 4
 135 588 l 5
 232 588 l 4
 232.053 436 l 4
 377 436 l 5
 377 340 l 5
 232.101 340 l 4
 232.204 134.52 l 4
 232.204 83.7979 276 78 298 78 c 5
 334 78 l 5
 334 -14 l 5
 298 -14 l 5
 198 -14 135 54 135 132.68 c 5
 135 340 l 4
EndSplineSet
EndChar
StartChar: u
Encoding: 117 117 41
Width: 450
Flags: HW
HStem: -1 21G<343 439> 415 20G<40 137 343 439>
VStem: 40 97<219 435> 343 96<-1 205 410 435>
Fore
329 410.935 m 0
 329 410.935 329 425.614 329 435 c 17
 425 435 l 1
 425 393 l 1
 425 205 l 1
 425 -1 l 1
 329 -1 l 1
 329 48.4434 l 17
 292.429 15.4912 250.201 -13.1201 210.54 -13.1201 c 0
 105.914 -13.1201 26 94.4863 26 219.68 c 0
 26 435 l 1
 123 435 l 0
 123.204 221.52 l 0
 123.204 149.186 152.115 84.4805 206.473 84.4805 c 1
 271 84.4805 328.741 169 328.741 221.52 c 1
 329 410.935 l 0
EndSplineSet
EndChar
StartChar: v
Encoding: 118 118 42
Width: 469
Flags: HW
HStem: 416 20G<0 104.755 342.288 447>
DStem: 0 436 104.755 436 189.898 1.46031e-06 225 162 342.288 436 447 436 225 162 259.633 -1.26362e-05
Fore
199.898 0 m 1
 10 436 l 1
 114.755 436 l 1
 235 162 l 1
 352.288 436 l 1
 457 436 l 1
 269.633 -0 l 1
 199.898 0 l 1
EndSplineSet
EndChar
StartChar: w
Encoding: 119 119 43
Width: 569
Flags: HW
HStem: 415 20G<10 113 455.734 558.734>
DStem: 10 435 113 435 146.487 0 185 204 455.734 435 558.734 435 386.734 201 425 0
Fore
284 191 m 1
 203.266 0 l 1
 201.314 0 144.536 0 146.487 0 c 1
 10 435 l 1
 113 435 l 1
 185 204 l 1
 252.545 350 l 0
 252.545 350 292.006 350 317.234 350 c 17
 386.734 201 l 1
 455.734 435 l 17
 558.734 435 l 1
 425 0 l 1
 423.049 0 366.271 0 368.222 0 c 1
 284 191 l 1
EndSplineSet
EndChar
StartChar: x
Encoding: 120 120 44
Width: 458
Flags: HW
HStem: 416 20G<0.53418 117.951 314.049 431.466>
DStem: 0.53418 436 117.951 436 158 219.106 216.443 300.336 314.049 436 431.466 436 216.443 300.336 274.709 220.082
Fore
127.951 436 m 0
444.853 -0.5 m 9,2,-1
 327.436 -0.5 l 17,0,1
 328.422 -1.85742 226.986 137.86 226 139.218 c 1,0,0
 130 -0.5 l 1,6,7
 10 -0.5 l 1,8,-1
 9.02246 -1.8584 167.023 217.748 168 219.106 c 1,0,0
 10.5342 436 l 9,5,-1
 56.3271 436 127.951 436 127.951 436 c 0,3,4
 226.443 300.336 l 0,0,0
 324.049 436 l 1,9,-1
 441.466 436 l 1,10,-1
 284.709 220.082 l 1,0,0
 269.681 240.782 429.824 20.2002 444.853 -0.5 c 9,2,-1
EndSplineSet
EndChar
StartChar: y
Encoding: 121 121 45
Width: 450
Flags: HW
HStem: 416 20G<50 146 352 448>
VStem: 50 96<213 435>
Fore
26 436 m 9
 122 436 l 1
 121.565 361.417 121.204 287.458 121.204 213.48 c 0
 121.204 99.5996 186.177 95.4404 224.473 95.4404 c 0
 278.831 95.4404 327.741 144 327.741 213.48 c 0
 328 436 l 1
 424 436 l 1
 424 -5 l 1
 424 -124 312 -222 228 -222 c 1
 80.5801 -222 34 -108 25.46 -46.6797 c 0
 25.46 -46.6797 83.5342 -47.8018 120.664 -48.5195 c 17
 128 -100 185.637 -125.56 223.933 -125.56 c 0
 278.291 -125.56 328.201 -51 328.201 18.4805 c 0
 328 37.0654 l 1
 328 37.0654 259.724 -2.73828 228.54 -1 c 1
 81.1201 -1 26 90.126 26 215.32 c 0
 26 227.84 26 444 26 436 c 9
EndSplineSet
EndChar
StartChar: z
Encoding: 122 122 46
Width: 434
Flags: HW
HStem: 0 96<184 409.89> 340 96<26 246>
Fore
184 96 m 1
 410 96 l 1
 410 0 l 1
 273.381 -0.214753 136.913 -0.579209 0 -0.5 c 0
 -0.105788 -0.647005 245.778 340.692 246 341 c 2
 26 340 l 1
 26 436 l 1
 431.466 436 l 1
 184 96 l 1
EndSplineSet
EndChar
StartChar: braceleft
Encoding: 123 123 21
Width: 310
Flags: HW
Fore
5 350 m 1
 137 392 84 587 110 648 c 1
 140 709 218.333 709.057 285 711 c 1
 285 615 l 1
 250 622.46 220 612 203 588 c 1
 184 554 227 396 133 350 c 1
 227 312 184 146 203 112 c 1
 220 88 250 77.54 285 85 c 1
 285 -11 l 1
 218.333 -9.05664 140 -9 110 52 c 1
 84 113 137 310 5 350 c 1
EndSplineSet
EndChar
StartChar: bar
Encoding: 124 124 22
Width: 149
Flags: HW
HStem: 0 21G<26 122> 680 20G<26 122>
VStem: 26 96<0 700>
Fore
26 0 m 17
 26 700 l 1
 122 700 l 1
 122 0 l 9
 26 0 l 17
EndSplineSet
EndChar
StartChar: braceright
Encoding: 125 125 22
Width: 318
Flags: W
Fore
306 350 m 5
 174 310 227 113 201 52 c 5
 171 -9 92.667 -9.05664 26 -11 c 5
 26 85 l 5
 61 77.54 91 88 108 112 c 5
 127 146 84 312 178 350 c 5
 84 396 127 554 108 588 c 5
 91 612 61 622.46 26 615 c 5
 26 711 l 5
 92.667 709.057 171 709 201 648 c 5
 227 587 174 392 306 350 c 5
EndSplineSet
EndChar
StartChar: asciitilde
Encoding: 126 126 23
Width: 359
Flags: HW
Fore
25.5801 388 m 17
 48.2295 406 76.8408 435 113.796 435 c 1
 162.672 436 193.666 361 244.927 361 c 1
 279.497 361 306.916 387 336.718 409 c 9
 336.718 313 l 17
 306.916 290 280.689 265 244.927 265 c 1
 190.09 265 160.287 340 113.796 339 c 1
 75.6475 339 52.998 314 25.5801 292 c 9
 25.5801 388 l 17
EndSplineSet
EndChar
StartChar: exclamdown
Encoding: 161 161 25
Width: 220
Flags: W
HStem: 414 20G<63 159> 516 138<111 123>
VStem: 63 96<-40 434>
Fore
42 585 m 4
 42 623.088 72.9121 654 111 654 c 4
 149.088 654 180 623.088 180 585 c 4
 180 546.912 149.088 516 111 516 c 4
 72.9121 516 42 546.912 42 585 c 4
159 434 m 5
 159 -40 l 5
 63 -40 l 5
 63 434 l 5
 159 434 l 5
EndSplineSet
EndChar
StartChar: cent
Encoding: 162 162 26
Width: 411
Flags: W
HStem: 0 21G<156 252>
VStem: 150 96<540 646>
Fore
156 98.0491 m 1
 51.3646 123.997 1.01725e-05 215.355 0 321 c 0
 0 426.768 66.3178 515.705 150 540.753 c 1
 150 646 l 1
 246 646 l 1
 246 541.156 l 1
 285.32 530.697 321.947 509.147 348 485.688 c 9
 326.156 458.375 292 415.688 292 415.688 c 0
 278 429.688 242 450.203 193.469 450.203 c 1
 139.109 450.203 95.2031 391.5 95.2031 319.156 c 0
 95.2031 205.281 177.172 187.125 215.469 187.125 c 0
 246.5 187.125 289.406 215.172 308.531 245.297 c 9
 366 173.688 l 1
 356.308 151.072 300.296 110.842 252 96.2058 c 1
 252 0 l 5
 156 0 l 5
 156 98.0491 l 1
EndSplineSet
EndChar
StartChar: sterling
Encoding: 163 163 27
Width: 494
Flags: W
HStem: 0 96<177 402> 276 96<-4 107 216 372>
Fore
107.492 276 m 1
 -4 276 l 1
 -4 372 l 1
 112.352 372 l 1
 116 552 110.669 695.724 257.812 684 c 1
 298.781 679.141 393 660 432 537 c 1
 336 534 l 1
 330 576 274.781 587.406 262.656 587.406 c 1
 206.736 587.823 218.771 499.151 216.801 372 c 1
 372 372 l 1
 372 276 l 1
 213.59 276 l 1
 211.99 248.199 201.613 219.11 198 189 c 1
 192.859 153.156 184.656 120.266 177 96 c 1
 408 96 l 1
 424.438 97.0938 440.859 98.0625 465 131 c 1
 504 45 l 1
 480.641 9.71875 440.859 5.75 402 0 c 1
 26 0 l 1
 35.0938 35.7031 78 111 89.8281 180 c 1
 94.4062 211.351 105.348 243.634 107.492 276 c 1
EndSplineSet
EndChar
StartChar: currency
Encoding: 164 164 28
Width: 1000
HStem: 183 96<78 174 382 444> 219 89<261 271> 434 91<261 271> 462 96<78 137 348 444>
VStem: 78 96<183 246 462 558> 108 90<359.723 376> 324 90<359.723 376> 348 96<183 279 497 558>
Fore
198 371 m 0x66
 198 336.219 226.219 308 261 308 c 0
 295.781 308 324 336.219 324 371 c 0
 324 405.781 295.781 434 261 434 c 0
 226.219 434 198 405.781 198 371 c 0x66
348 246.153 m 1x91
 323.294 229.034 293.311 219 261 219 c 0x41
 228.689 219 198.706 229.034 174 246.153 c 1
 174 183 l 1
 78 183 l 1
 78 279 l 1x89
 139.529 279 l 1
 119.756 304.78 108 337.026 108 372 c 0x84
 108 405.63 118.87 436.738 137.285 462 c 1
 78 462 l 1
 78 558 l 1
 174 558 l 1x98
 174 497.847 l 1
 198.706 514.966 228.689 525 261 525 c 0x28
 293.311 525 323.294 514.966 348 497.847 c 1
 348 558 l 1
 444 558 l 1
 444 462 l 1x19
 384.715 462 l 1
 403.13 436.738 414 405.63 414 372 c 0x12
 414 337.026 402.244 304.78 382.471 279 c 1
 444 279 l 1
 444 183 l 1
 348 183 l 1
 348 246.153 l 1x91
EndSplineSet
EndChar
StartChar: yen
Encoding: 165 165 29
Width: 544
Flags: W
HStem: 0 21G<195 302> 132 96<60 195 302 435> 303 96<60 195 333 435> 662 20G<-2 114 400 516>
VStem: 195 107<0 132 228 303>
DStem: -2 682 114 682 165.925 399 254 441
Fore
195 303 m 1
 60 303 l 1
 60 399 l 1
 165.925 399 l 1
 -2 682 l 1
 114 682 l 1
 254 441 l 1
 400 682 l 1
 516 682 l 1
 333.584 399 l 1
 435 399 l 1
 435 303 l 1
 302 303 l 1
 302 228 l 1
 435 228 l 1
 435 132 l 1
 302 132 l 1
 302 0 l 1
 195 0 l 1
 195 132 l 1
 60 132 l 1
 60 228 l 1
 195 228 l 1
 195 303 l 1
EndSplineSet
EndChar
StartChar: brokenbar
Encoding: 166 166 26
Width: 180
Flags: W
HStem: 0 21G<26 122> 680 20G<26 122>
VStem: 26 96<0 325 375 700>
Fore
122 325 m 21
 122 0 l 5
 26 0 l 5
 26 325 l 13
 122 325 l 21
26 375 m 21
 26 700 l 5
 122 700 l 5
 122 375 l 13
 26 375 l 21
EndSplineSet
EndChar
StartChar: section
Encoding: 167 167 27
Width: 375
Flags: W
Fore
116.297 468.045 m 1
 123.01 470.201 130.744 471.59 139.634 472.148 c 0
 228.889 477.734 313.67 381.149 320.515 272.064 c 0
 327.346 162.986 255.287 56.5664 166.039 50.959 c 0
 109.132 47.3984 54.0527 85.3672 19.834 141.622 c 9
 106.967 177.384 l 17
 121.103 158.097 140.956 145.588 160.03 146.784 c 0
 187.714 148.512 210.016 177.738 219.732 214.898 c 0
 213.059 212.767 205.327 211.391 196.397 210.832 c 0
 107.156 205.238 22.376 301.824 15.5312 410.909 c 0
 8.7002 519.986 80.7588 626.407 170 632 c 0
 223.101 635.331 274.62 602.488 309.085 552.365 c 0
 221.158 513.739 l 0
 208.104 528.456 192.389 537.212 176.002 536.196 c 0
 148.318 534.453 126.015 505.213 116.297 468.045 c 1
214.105 314.362 m 0
 199.982 350.951 173.795 378.096 145.643 376.323 c 0
 137 375.782 129.048 373.087 121.934 368.604 c 1
 136.064 332.019 162.25 304.873 190.396 306.636 c 0
 199.209 307.19 207.14 309.88 214.105 314.362 c 0
EndSplineSet
EndChar
StartChar: dieresis
Encoding: 168 168 27
Width: 439
Flags: W
Fore
86.6396 344.64 m 0
 121.615 344.64 150 373.025 150 408 c 0
 150 442.975 121.615 471.36 86.6396 471.36 c 0
 51.665 471.36 23.2803 442.975 23.2803 408 c 0
 23.2803 373.025 51.665 344.64 86.6396 344.64 c 0
317.92 344.64 m 0
 352.896 344.64 381.28 373.025 381.28 408 c 0
 381.28 442.975 352.896 471.36 317.92 471.36 c 0
 282.945 471.36 254.561 442.975 254.561 408 c 0
 254.561 373.025 282.945 344.64 317.92 344.64 c 0
EndSplineSet
LCarets: 0 65535 '    ' 1 0 
Ligature: 0 1 'liga' space uni0308
EndChar
StartChar: copyright
Encoding: 169 169 28
Width: 1000
Fore
313.11 294.89 m 21
 294.905 276.685 269.76 265.42 242 265.42 c 4
 186.479 265.42 141.42 310.479 141.42 366 c 4
 141.42 421.521 186.479 466.58 242 466.58 c 4
 269.76 466.58 294.905 455.315 313.11 437.11 c 13
 274.522 398.522 l 21
 266.196 406.848 254.696 412 242 412 c 4
 216.608 412 196 391.392 196 366 c 4
 196 340.608 216.608 320 242 320 c 4
 254.696 320 266.196 325.152 274.522 333.478 c 13
 313.11 294.89 l 21
274.522 398.522 m 4
274.522 333.478 m 4
313.11 437.11 m 4
313.11 294.89 m 4
242 366 m 29
84.5 366 m 4
 84.5 279.061 155.061 208.5 242 208.5 c 4
 328.939 208.5 399.5 279.061 399.5 366 c 4
 399.5 452.939 328.939 523.5 242 523.5 c 4
 155.061 523.5 84.5 452.939 84.5 366 c 4
28 366 m 4
 28 484.128 123.872 580 242 580 c 4
 360.128 580 456 484.128 456 366 c 4
 456 247.872 360.128 152 242 152 c 4
 123.872 152 28 247.872 28 366 c 4
EndSplineSet
EndChar
StartChar: ordfeminine
Encoding: 170 170 29
Width: 273
Flags: W
DStem: 167.652 490.383 159 639 184.277 441.383 228.902 441.383
Fore
167.652 490.383 m 17
 165.287 466.373 128.277 435.258 92.2012 435.258 c 1
 36.4023 435.258 19.7773 465.883 19.7773 512.397 c 0
 19.7773 575.258 87.2217 617.945 127.788 633.153 c 0
 134.402 635.633 142.715 639 159 639 c 1
 228.902 441.383 l 1
 184.277 441.383 l 1
 167.652 490.383 l 17
61.4287 511.593 m 1
 61.4287 487.758 74.9023 477.45 92.1719 477.45 c 0
 112.527 477.45 141.402 496.508 141.402 552.508 c 0
 141.402 567.583 135.582 586.775 132.652 591.883 c 1
 110.324 579.283 61.4287 551.633 61.4287 511.593 c 1
EndSplineSet
EndChar
StartChar: guillemotleft
Encoding: 171 171 30
Width: 436
Flags: W
DStem: 6 404 102 404 100 262 196 262 100 546 196 546 6 404 102 404 202 404 298 404 296 262 392 262 296 546 392 546 202 404 298 404
Fore
296 546 m 5
 392 546 l 5
 298 404 l 5
 392 262 l 5
 296 262 l 5
 202 404 l 5
 296 546 l 5
100 546 m 5
 196 546 l 5
 102 404 l 5
 196 262 l 5
 100 262 l 5
 6 404 l 5
 100 546 l 5
EndSplineSet
EndChar
StartChar: logicalnot
Encoding: 172 172 31
Width: 448
Flags: W
HStem: 340 96<27 305>
VStem: 305 96<246 436>
Fore
401 246 m 1
 305 246 l 1
 305 340 l 0
 27 340 l 1
 27 436 l 1
 27 436 l 1
 402 436 l 1
 401 246 l 1
EndSplineSet
EndChar
StartChar: softhyphen
Encoding: 173 173 32
Width: 448
Flags: W
HStem: 340 96<27 402>
Fore
27 436 m 5
 27 436 l 5
 402 436 l 5
 402 340 l 5
 27 340 l 5
 27 436 l 5
EndSplineSet
EndChar
StartChar: registered
Encoding: 174 174 33
Width: 499
Flags: W
DStem: 195.782 351.01 243.853 353.966 297.311 242.098 345.795 242.098
Back
313.11 294.89 m 17
 294.905 276.685 269.76 265.42 242 265.42 c 0
 186.479 265.42 141.42 310.479 141.42 366 c 0
 141.42 421.521 186.479 466.58 242 466.58 c 0
 269.76 466.58 294.905 455.315 313.11 437.11 c 9
 274.522 398.522 l 17
 266.196 406.848 254.696 412 242 412 c 0
 216.608 412 196 391.392 196 366 c 0
 196 340.608 216.608 320 242 320 c 0
 254.696 320 266.196 325.152 274.522 333.478 c 9
 313.11 294.89 l 17
274.522 398.522 m 0
274.522 333.478 m 0
313.11 437.11 m 0
313.11 294.89 m 0
242 366 m 25
84.5 366 m 4
 84.5 279.061 155.061 208.5 242 208.5 c 4
 328.939 208.5 399.5 279.061 399.5 366 c 4
 399.5 452.939 328.939 523.5 242 523.5 c 4
 155.061 523.5 84.5 452.939 84.5 366 c 4
28 366 m 4
 28 484.128 123.872 580 242 580 c 4
 360.128 580 456 484.128 456 366 c 4
 456 247.872 360.128 152 242 152 c 4
 123.872 152 28 247.872 28 366 c 4
EndSplineSet
Fore
80.5 366 m 0
 80.5 226 155.061 175.5 242 175.5 c 0
 328.939 175.5 403.5 226 403.5 366 c 0
 403.5 506 328.939 556.5 242 556.5 c 0
 155.061 556.5 80.5 506 80.5 366 c 0
24 366 m 0
 24 546 123.872 613 242 613 c 0
 360.128 613 460 546 460 366 c 0
 460 186 360.128 119 242 119 c 0
 123.872 119 24 186 24 366 c 0
195.782 391.377 m 1
 239.708 391.377 295.652 386.981 295.652 422.599 c 1
 295.652 457.028 238.465 455.007 195.782 455.007 c 1
 195.782 391.377 l 1
156 493 m 0
 195.782 493 l 1
 268.717 493 335.435 474.838 335.435 422.599 c 0
 335.435 373.525 291.002 360.938 243.853 353.966 c 1
 345.795 242.098 l 1
 297.311 242.098 l 1
 195.782 351.01 l 1
 195.782 359.558 195.782 250.646 195.782 242.098 c 1
 156 242.098 l 1
 156 493 l 0
EndSplineSet
EndChar
StartChar: macron
Encoding: 175 175 34
Width: 448
Flags: W
HStem: 486 96<77 372>
Fore
77 582 m 5
 77 582 l 5
 372 582 l 5
 372 486 l 5
 77 486 l 5
 77 582 l 5
EndSplineSet
LCarets: 0 65535 '    ' 1 0 
Ligature: 0 1 'liga' space uni0304
EndChar
StartChar: degree
Encoding: 176 176 28
Width: 337
Flags: W
HStem: 447 74<145.154 158> 625 74<145.154 158>
VStem: 28 77<562.6 576> 205 79<562.6 576>
Fore
105 573 m 4
 105 544.296 127.4 521 155 521 c 4
 182.6 521 205 544.296 205 573 c 4
 205 601.704 182.6 625 155 625 c 4
 127.4 625 105 601.704 105 573 c 4
28 573 m 4
 28 642.552 85.3438 699 156 699 c 4
 226.656 699 284 642.552 284 573 c 4
 284 503.448 226.656 447 156 447 c 4
 85.3438 447 28 503.448 28 573 c 4
EndSplineSet
EndChar
StartChar: plusminus
Encoding: 177 177 29
Width: 450
Flags: W
HStem: 110 96<27 394> 394 96<26 161 259 394>
VStem: 161 100<279 394 490 605>
Fore
27 206 m 5
 27 206 l 5
 394 206 l 5
 394 110 l 5
 27 110 l 5
 27 206 l 5
26 490 m 1
 26 490 l 1
 159 490 l 1
 159 605 l 1
 259 605 l 1
 259 490 l 1
 394 490 l 1
 394 394 l 1
 261 394 l 1
 261 279 l 1
 161 279 l 1
 161 394 l 1
 26 394 l 1
 26 490 l 1
EndSplineSet
EndChar
StartChar: uni00B2
Encoding: 178 178 30
Width: 247
Flags: W
Fore
63.1416 623.18 m 13
 25.4619 639.665 l 21
 33.7041 671.065 64.7119 700 102 700 c 5
 138.502 700.11 184.032 671.458 184.032 605.628 c 5
 184.032 561.165 141.642 523.485 98.4668 480.655 c 5
 80.8047 463.024 l 5
 187.957 463.024 l 21
 187.957 425.36 l 5
 25.4619 425.36 l 5
 25.4619 463.307 l 5
 67.0674 504.858 l 21
 98.4668 536.83 142.427 567.445 142.427 605.628 c 4
 142.427 642.412 123.979 662.124 102 662.124 c 5
 82.375 662.124 68.6367 645.945 63.1416 623.18 c 13
EndSplineSet
EndChar
StartChar: uni00B3
Encoding: 179 179 31
Width: 480
Flags: W
Fore
11.1455 465.556 m 21
 25.625 431.769 63.4082 412.39 92.6826 412.286 c 5
 141.87 412.461 180.367 444.062 180.367 494.114 c 5
 180.367 531.749 158.361 550.426 147.1 560.081 c 5
 157.155 568.93 177.042 585.822 177.042 622.513 c 5
 177.042 664.66 140.663 700 93 700 c 5
 61.8271 699.654 32.0615 685.979 17.5811 656.213 c 13
 51.3682 636.906 l 21
 57.8037 656.213 79.3662 662.396 93 661.708 c 5
 120.15 661.708 138.238 644.374 138.238 622.513 c 5
 138.238 597.488 121.039 579.79 93.6025 579.79 c 5
 87.2217 579.79 83.8555 578.951 78.7197 580.594 c 5
 78.7197 541.176 l 5
 84.1211 543.082 87.4854 542.135 93.4023 542.135 c 5
 123.252 542.135 141.739 522.497 141.739 494.055 c 5
 141.739 469.402 118.828 450.901 92.6826 450.901 c 5
 77.5186 450.901 57 457.511 47.3467 478.428 c 13
 11.1455 465.556 l 21
EndSplineSet
EndChar
StartChar: acute
Encoding: 180 180 29
Width: 289
Flags: W
HStem: 609 119<24 221>
DStem: 107 728 221 728 24 609 139 609
Fore
24 609 m 1
 139 609 l 2
 221 728 l 2
 107 728 l 1
 24 609 l 1
EndSplineSet
LCarets: 0 65535 '    ' 1 0 
Ligature: 0 1 'liga' space acutecomb
EndChar
StartChar: mu
Encoding: 181 181 30
Width: 481
Flags: W
HStem: -1 21G<329 425> 415 20G<26 123 329 425>
VStem: 27 96<-174 14 219 435> 329 96<-1 205 410 435>
Fore
27 195.492 m 1
 26.3384 203.466 26 211.54 26 219.688 c 0
 26 435 l 1
 123 435 l 0
 123 369 l 1
 123.203 221.516 l 0
 123.203 149.188 152.109 84.4844 206.469 84.4844 c 1
 271 84.4844 328.734 169 328.734 221.516 c 1
 329 410.938 l 0
 329 410.938 329 425.609 329 435 c 17
 425 435 l 1
 425 393 l 1
 425 205 l 1
 425 -1 l 1
 329 -1 l 1
 329 48.4375 l 17
 292.422 15.4844 250.203 -13.125 210.547 -13.125 c 0
 178.52 -13.125 148.811 -3.04481 123 14.5348 c 1
 123 -174 l 5
 27 -174 l 5
 27 195.492 l 1
EndSplineSet
EndChar
StartChar: paragraph
Encoding: 182 182 31
Width: 501
Flags: W
HStem: 0 96<246 400> 601 81<267 304>
VStem: -36 96<486 497> 150 96<96 285 390 599> 299 101<96 682>
Fore
246 599.188 m 1
 246 377.781 l 1
 263.172 376.812 280.938 376.281 299 376 c 1
 299 601 l 1
 281.984 601 264.062 600.484 246 599.188 c 1
150 582.594 m 1
 98.4531 566.391 59.9531 537.109 60 486 c 1
 60 432.812 95.8594 405.234 150 390.953 c 1
 150 582.594 l 1
246 96 m 1
 299 96 l 1
 299 284 l 1
 281.234 284 263.5 284.438 246 285.422 c 1
 246 96 l 1
150 0 m 1
 150 96 l 1
 150 297.438 l 1
 44.2656 319.641 -36 373.266 -36 486 c 0
 -36 618 128 682 304 682 c 1
 400 682 l 0
 400 0 l 1
 150 0 l 1
EndSplineSet
EndChar
StartChar: periodcentered
Encoding: 183 183 32
Width: 195
Flags: W
Fore
26 352 m 0
 26 387.88 55.1201 417 91 417 c 0
 126.88 417 156 387.88 156 352 c 0
 156 316.12 126.88 287 91 287 c 0
 55.1201 287 26 316.12 26 352 c 0
EndSplineSet
EndChar
StartChar: cedilla
Encoding: 184 184 30
Width: 232
Flags: W
Fore
29 -93 m 1
 43.6445 -82.0166 75 -59.8086 75 -42 c 0
 75 -26.1748 64 -14 48 9 c 0
 141.33 36 l 0
 162 16 182 -14 182 -48 c 0
 182 -101.926 114 -132 80 -154 c 1
 29 -93 l 1
EndSplineSet
LCarets: 0 65535 '    ' 1 0 
Ligature: 0 1 'liga' space uni0327
EndChar
StartChar: uni00B9
Encoding: 185 185 31
Width: 154
Flags: W
HStem: 662 20G<64.3203 102>
Fore
35.2754 605.855 m 5
 11.333 634.9 l 5
 64.3203 682 l 5
 102 682 l 5
 102 414.315 l 5
 64.3203 414.315 l 5
 64.7129 630.976 l 5
 35.2754 605.855 l 5
EndSplineSet
EndChar
StartChar: ordmasculine
Encoding: 186 186 32
Width: 337
Flags: W
HStem: 429 74<145.155 158> 607 74<145.155 158>
VStem: 28 77<544.6 558> 205 79<544.6 558>
Fore
105 555 m 0
 105 526.296 127.4 503 155 503 c 0
 182.6 503 205 526.296 205 555 c 0
 205 583.704 182.6 607 155 607 c 0
 127.4 607 105 583.704 105 555 c 0
28 555 m 0
 28 624.552 85.3438 681 156 681 c 0
 226.656 681 284 624.552 284 555 c 0
 284 485.448 226.656 429 156 429 c 0
 85.3438 429 28 485.448 28 555 c 0
EndSplineSet
EndChar
StartChar: guillemotright
Encoding: 187 187 33
Width: 436
Flags: W
DStem: 11 546 107 546 105 404 201 404 105 404 201 404 11 262 107 262 207 546 303 546 301 404 397 404 301 404 397 404 207 262 303 262
Fore
107 546 m 5
 11 546 l 5
 105 404 l 5
 11 262 l 5
 107 262 l 5
 201 404 l 5
 107 546 l 5
303 546 m 5
 207 546 l 5
 301 404 l 5
 207 262 l 5
 303 262 l 5
 397 404 l 5
 303 546 l 5
EndSplineSet
EndChar
StartChar: onequarter
Encoding: 188 188 34
Width: 535
Flags: W
HStem: 0 21G<402.84 447>
DStem: 312.68 313.26 358.22 313.26 281.859 106.26 330.619 150.42 336 555 462 555 0 153 126 153
Fore
86.2754 605.54 m 5
 62.333 634.585 l 5
 115.32 681.685 l 5
 153 681.685 l 5
 153 414 l 5
 115.32 414 l 5
 115.713 630.66 l 5
 86.2754 605.54 l 5
447 0 m 5
 402.84 0 l 5
 402.84 106.26 l 5
 281.859 106.26 l 13
 312.68 313.26 l 5
 358.22 313.26 l 5
 330.619 150.42 l 5
 402.84 150.42 l 5
 402.84 313.26 l 5
 447 313.26 l 5
 447 150.42 l 13
 491.159 149.96 l 21
 491.159 106.26 l 5
 447 106.26 l 5
 447 0 l 5
126 153 m 5
 0 153 l 5
 336 555 l 4
 462 555 l 5
 126 153 l 5
EndSplineSet
LCarets: 0 65535 '    ' 2 0 0 
Ligature: 0 1 'frac' one slash four
Ligature: 0 1 'frac' one fraction four
EndChar
StartChar: onehalf
Encoding: 189 189 35
Width: 535
Flags: W
HStem: 0 21G<287.505 450>
DStem: 336 555 462 555 0 153 126 153
Fore
325.185 197.819 m 9
 287.505 214.305 l 17
 295.747 245.705 326.755 274.64 364.043 274.64 c 1
 400.545 274.75 446.075 246.098 446.075 180.268 c 1
 446.075 135.805 403.685 98.125 360.51 55.2949 c 1
 342.848 37.6641 l 1
 450 37.6641 l 17
 450 0 l 1
 287.505 0 l 1
 287.505 37.9463 l 1
 329.11 79.498 l 17
 360.51 111.47 404.47 142.085 404.47 180.268 c 0
 404.47 217.052 386.022 236.764 364.043 236.764 c 1
 344.418 236.764 330.68 220.585 325.185 197.819 c 9
86.2754 605.54 m 1
 62.333 634.585 l 1
 115.32 681.685 l 1
 153 681.685 l 1
 153 414 l 1
 115.32 414 l 1
 115.713 630.66 l 1
 86.2754 605.54 l 1
126 153 m 1
 0 153 l 1
 336 555 l 0
 462 555 l 1
 126 153 l 1
EndSplineSet
LCarets: 0 65535 '    ' 2 0 0 
Ligature: 0 1 'frac' one slash two
Ligature: 0 1 'frac' one fraction two
EndChar
StartChar: threequarters
Encoding: 190 190 36
Width: 535
Flags: W
HStem: 0 21G<402.84 447>
DStem: 312.68 313.26 358.22 313.26 281.859 106.26 330.619 150.42 336 555 462 555 0 153 126 153
Fore
11.1455 465.556 m 17
 25.625 431.769 63.4082 412.39 92.6826 412.286 c 1
 141.87 412.461 180.367 444.062 180.367 494.114 c 1
 180.367 531.749 158.361 550.426 147.1 560.081 c 1
 157.155 568.93 177.042 585.822 177.042 622.513 c 1
 177.042 664.66 140.663 700 93 700 c 1
 61.8271 699.654 32.0615 685.979 17.5811 656.213 c 9
 51.3682 636.906 l 17
 57.8037 656.213 79.3662 662.396 93 661.708 c 1
 120.15 661.708 138.238 644.374 138.238 622.513 c 1
 138.238 597.488 121.039 579.79 93.6025 579.79 c 1
 87.2217 579.79 83.8555 578.951 78.7197 580.594 c 1
 78.7197 541.176 l 1
 84.1211 543.082 87.4854 542.135 93.4023 542.135 c 1
 123.252 542.135 141.739 522.497 141.739 494.055 c 1
 141.739 469.402 118.828 450.901 92.6826 450.901 c 1
 77.5186 450.901 57 457.511 47.3467 478.428 c 9
 11.1455 465.556 l 17
447 0 m 1
 402.84 0 l 1
 402.84 106.26 l 1
 281.859 106.26 l 9
 312.68 313.26 l 1
 358.22 313.26 l 1
 330.619 150.42 l 1
 402.84 150.42 l 1
 402.84 313.26 l 1
 447 313.26 l 1
 447 150.42 l 9
 491.159 149.96 l 17
 491.159 106.26 l 1
 447 106.26 l 1
 447 0 l 1
126 153 m 1
 0 153 l 1
 336 555 l 0
 462 555 l 1
 126 153 l 1
EndSplineSet
LCarets: 0 65535 '    ' 2 0 0 
Ligature: 0 1 'frac' three slash four
Ligature: 0 1 'frac' three fraction four
EndChar
StartChar: AE
Encoding: 198 198 37
Width: 666
Flags: W
HStem: 0 0<612 613.051> 0 96<439 612> 303 95<268 343 439 612> 586 96<273 612>
VStem: 343 96<0 302 398 586>
DStem: 273 682 342 588 7.6875 0.078125 268 398 273 682 236 303 7.6875 0.078125 117.922 0.078125
Fore
343 303 m 1
 236 303 l 0
 117.922 0.078125 l 0
 7.6875 0.078125 l 1
 273 682 l 1
 268 682 607 682 612 682 c 1
 612 586 l 0
 439 586 l 0
 439 398 l 1
 612 398 l 1
 612 302 l 0
 439 302 l 0
 439 96 l 0
 612 96 l 0
 612 0 l 1
 631.9 0 362.9 0 343 0 c 1
 343 303 l 1
343 553.866 m 1
 342 588 l 1
 268 398 l 1
 343 398 l 1
 343 553.866 l 1
EndSplineSet
EndChar
StartChar: Eth
Encoding: 208 208 46
Width: 645
Flags: W
HStem: 0 21G<126 222> 300 96<25 360> 588 94<222 249.336>
VStem: 126 97<0 588> 505 90<350 369>
Fore
25 396 m 1
 25 396 l 1
 360 396 l 1
 360 300 l 1
 25 300 l 1
 25 396 l 1
505 350 m 1
 505 454 402 588 223 588 c 1
 224 94 l 1
 392 94 505 226 505 350 c 1
595 350 m 1
 595 80 382.516 -8.03711 222 0 c 1
 126 0 l 1
 126 682 l 1
 222 682 l 1
 454 682 595 524 595 350 c 1
EndSplineSet
EndChar
StartChar: multiply
Encoding: 215 215 52
Width: 450
Flags: W
DStem: 44.8799 396.51 115.591 467.221 144.582 296.808 215.293 367.519 144.582 296.808 213.879 230.34 43.4658 195.691 111.349 127.81 213.879 230.34 284.59 301.05 313.581 130.638 384.291 201.349 317.823 470.049 385.706 402.167 215.293 367.519 284.59 301.05
Fore
43.4658 195.691 m 5
 43.4658 195.691 l 5
 144.582 296.808 l 5
 44.8799 396.51 l 5
 115.591 467.221 l 5
 215.293 367.519 l 5
 317.823 470.049 l 5
 385.706 402.167 l 5
 284.59 301.05 l 5
 384.291 201.349 l 5
 313.581 130.638 l 5
 213.879 230.34 l 5
 111.349 127.81 l 5
 43.4658 195.691 l 5
EndSplineSet
EndChar
StartChar: Oslash
Encoding: 216 216 53
Width: 575
Flags: W
HStem: -14 96<274 278> 604 96<275 277>
VStem: 4 96<350 378> 442 96<350 378>
DStem: 334.918 590.083 416.045 493.525 140.818 172.421 228.407 89.7687
Fore
187.245 1.19784 m 1
 176 -23 l 1
 50 -23 l 1
 92.7586 69.0073 l 1
 30.9016 141.616 4 250.699 4 350 c 1
 4 500 80 700 275 700 c 1
 313.701 700 347.297 692.436 376.308 679.146 c 1
 386 700 l 0
 512 700 l 1
 466.904 602.963 l 1
 518.333 531.669 538 433.152 538 350 c 1
 538 180 470 -14 274 -14 c 1
 241.941 -14 213.082 -8.59182 187.245 1.19784 c 1
228.407 89.7687 m 1
 242.389 84.7348 257.576 82 274 82 c 1
 390 82 442 230 442 350 c 1
 442.835 396.786 434.597 448.807 416.045 493.525 c 1
 228.407 89.7687 l 1
140.818 172.421 m 1
 334.918 590.083 l 1
 317.31 598.98 297.374 604 275 604 c 1
 150 604 100 462 100 350 c 1
 100 289.85 113.127 223.865 140.818 172.421 c 1
EndSplineSet
EndChar
StartChar: Thorn
Encoding: 222 222 57
Width: 501
Flags: W
HStem: 0 21G<26 127> 158 92<127 171.188> 459 81<122 162.636>
VStem: 26 96<0 682> 366 96<337.365 355>
Fore
127 250 m 1
 254 252 366 258 366 352 c 1
 366.102 448.071 230 459 127 459 c 1
 127 250 l 1
26 681 m 0
 123 682 l 1
 122 540 l 1
 298 540 462 484 462 352 c 0
 462 189.892 296 158 127 158 c 1
 127 165.1 127 7.1 127 0 c 1
 26 0 l 1
 26 681 l 0
EndSplineSet
EndChar
StartChar: germandbls
Encoding: 223 223 58
Width: 480
Flags: W
HStem: -14 96<291 300>
Fore
66 546 m 1
 45 498 42 171 27 0 c 1
 123 0 l 1
 132 147 141 450 165 522 c 1
 181 570 216 606.094 291.781 606.094 c 1
 359.281 606.094 404.266 563 404.266 508.656 c 1
 404.266 446.438 361.5 402.438 293.281 402.438 c 1
 277.422 402.438 269.047 400.344 256.281 404.438 c 1
 256.281 306.438 l 1
 269.719 311.172 278.078 308.812 292.781 308.812 c 1
 367 308.812 412.969 260 412.969 189.281 c 1
 412.969 128 356 82 291 82 c 1
 276.547 82 262.094 93.0938 246 99 c 9
 202.859 11.3438 l 17
 235.344 -5.125 260.078 -13.8906 291 -14 c 1
 413.281 -13.5625 509 65 509 189.438 c 1
 509 283 454.281 329.438 426.281 353.438 c 1
 451.281 375.438 500.734 417.438 500.734 508.656 c 1
 500.734 613.438 410.281 701.297 291.781 701.297 c 1
 171 701.297 102 620 66 546 c 1
EndSplineSet
EndChar
StartChar: ae
Encoding: 230 230 63
Width: 510
Flags: W
HStem: 0 21G<476.623 521.727> 184 96<386 673>
Fore
668.467 280 m 0
386.875 280 m 0,0,-1
 569.703 280 l 0,1,2
 557.453 320 535.453 358.516 477.938 358.516 c 1,3,4
 423.453 358.516 397.453 320 386.875 280 c 0,0,-1
114.203 160.484 m 1,11,12
 114.203 106 145 82.4375 184.469 82.4375 c 0,13,14
 231 82.4375 278 126 278 254 c 0,15,16
 278 288.453 288.703 338.328 282 350 c 1,17,18
 230.969 321.203 114.203 252 114.203 160.484 c 1,11,12
456.251 455.091 m 2,0,0
 463.323 455.775 470.574 456.125 478 456.125 c 1,16,17
 597.453 456.125 649.406 366.016 668.469 280 c 0,18,19
 675.516 248.172 671.509 221.44 673.453 184 c 17,20,-1
 383.391 184 l 0,5,6
 401.375 108.75 445.156 95.4375 477.938 95.4375 c 0,7,8
 508.953 95.4375 542.453 117 561.984 137.609 c 9,9,-1
 629.453 69 l 1,10,11
 601.453 40 565.453 0 478 0 c 1,12,13
 475.245 0 472.514 0.0507812 469.806 0.152344 c 2,0,0
 470 0 l 1,9,-1
 469.724 0.155273 l 2,0,0
 404.946 2.59375 361.391 33.6526 327.715 81.0343 c 1,0,0
 301.954 33.6478 252.033 -14 184.547 -14 c 1,2,3
 57 -14 19 56 19 162.312 c 0,4,5
 19 306 152.334 408.894 246.875 438.328 c 0,6,7
 294 453 419.781 456 457 456 c 1,8,-1
 456.251 455.091 l 2,0,0
EndSplineSet
EndChar
StartChar: igrave
Encoding: 236 236 68
Width: 266
Flags: HW
HStem: -27893.7 1486.82<38 134> -19716.2 7136.75<38 134> -8118.93 8846.6<-53.5 143.5>
VStem: 38 96<-19716.2 -12579.4>
DStem: -53.5 801 60.5 801 28.5 682 143.5 682
Fore
38.7959 132.16 m 1
 38 436 l 1
 134 436 l 0
 134 134 l 0
 134 83.2783 179.796 77.4805 201.796 77.4805 c 1
 237.796 77.4805 l 1
 237.796 -14.5195 l 1
 201.796 -14.5195 l 1
 101.796 -14.5195 38.7959 53.4805 38.7959 132.16 c 1
EndSplineSet
Ref: 96 96 S 1 0 0 1 -76.5 -80
LCarets: 0 65535 '    ' 1 0 
Ligature: 0 0 'liga' i gravecomb
EndChar
StartChar: iacute
Encoding: 237 237 69
Width: 266
Flags: HW
HStem: 416 20<38 134> 526 96<38 134> 682 119<28.5 225.5>
VStem: 38 96<526 622>
DStem: 111.5 801 225.5 801 28.5 682 143.5 682
Fore
38.7959 132.16 m 1
 38 436 l 1
 134 436 l 0
 134 134 l 0
 134 83.2783 179.796 77.4805 201.796 77.4805 c 1
 237.796 77.4805 l 1
 237.796 -14.5195 l 1
 201.796 -14.5195 l 1
 101.796 -14.5195 38.7959 53.4805 38.7959 132.16 c 1
EndSplineSet
Ref: 180 180 S 1 0 0 1 4.5 -82
LCarets: 0 65535 '    ' 1 0 
Ligature: 0 0 'liga' i acutecomb
EndChar
StartChar: icircumflex
Encoding: 238 238 70
Width: 449
Flags: HW
HStem: 416 20<38 134> 526 96<38 134> 825 20<33 136>
VStem: 38 96<526 622>
DStem: 33 845 86 772 -116 685 9 685 86 772 136 845 167 682 288 682
Fore
168.796 132.16 m 1
 168 436 l 1
 264 436 l 0
 264 134 l 0
 264 83.2783 309.796 77.4805 331.796 77.4805 c 1
 367.796 77.4805 l 1
 367.796 -14.5195 l 1
 331.796 -14.5195 l 1
 231.796 -14.5195 168.796 53.4805 168.796 132.16 c 1
EndSplineSet
Ref: 94 94 N 1 0 0 1 15 -15
LCarets: 0 65535 '    ' 1 0 
Ligature: 0 0 'liga' i uni0302
EndChar
StartChar: idieresis
Encoding: 239 239 71
Width: 266
Flags: HW
HStem: 416 20<38 134> 526 96<38 134>
VStem: 38 96<526 622>
Fore
38.7959 132.16 m 1
 38 436 l 1
 134 436 l 0
 134 134 l 0
 134 83.2783 179.796 77.4805 201.796 77.4805 c 1
 237.796 77.4805 l 1
 237.796 -14.5195 l 1
 201.796 -14.5195 l 1
 101.796 -14.5195 38.7959 53.4805 38.7959 132.16 c 1
EndSplineSet
Ref: 168 168 S 1 0 0 1 -116.28 166.36
LCarets: 0 65535 '    ' 1 0 
Ligature: 0 0 'liga' i uni0308
EndChar
StartChar: eth
Encoding: 240 240 72
Width: 450
Flags: HW
Fore
95.2031 213.484 m 0
 95.2031 99.5938 160.172 82.4375 198.469 82.4375 c 0
 252.828 82.4375 300.734 144 300.734 213.484 c 1
 300.734 266 249 330 179.469 344.516 c 1
 125.109 344.516 95.2031 285.812 95.2031 213.484 c 0
309.923 586.883 m 1
 358.152 523.425 397.905 457.645 398 381 c 1
 398 230 l 1
 399 147 l 1
 399 72 288.172 -14 202.547 -14 c 0
 55.125 -14 0 90.125 0 215.312 c 0
 0 340.516 78.9219 442.125 183.547 442.125 c 0
 223.203 442.125 265.422 419.516 302 386.562 c 1
 297.41 431.631 290.917 487.845 245.123 529.461 c 1
 175.094 467.406 l 1
 111.375 539.203 l 1
 160.254 582.521 l 1
 115.195 598.077 69.2773 595.948 26 591 c 1
 36 682 l 1
 104.314 686.421 171.678 682.5 235.767 649.441 c 1
 312 717 l 1
 375.719 645.188 l 1
 309.923 586.883 l 1
EndSplineSet
EndChar
StartChar: divide
Encoding: 247 247 78
Width: 448
Flags: HW
Fore
150.64 136.359 m 0
 150.64 171.335 179.025 199.72 214 199.72 c 0
 248.975 199.72 277.36 171.335 277.36 136.359 c 0
 277.36 101.385 248.975 73 214 73 c 0
 179.025 73 150.64 101.385 150.64 136.359 c 0
150.64 467.64 m 0
 150.64 502.615 179.025 531 214 531 c 0
 248.975 531 277.36 502.615 277.36 467.64 c 0
 277.36 432.665 248.975 404.28 214 404.28 c 0
 179.025 404.28 150.64 432.665 150.64 467.64 c 0
26 350 m 1
 26 350 l 1
 401 350 l 1
 401 254 l 1
 26 254 l 1
 26 350 l 1
EndSplineSet
EndChar
StartChar: oslash
Encoding: 248 248 79
Width: 489
Flags: HW
Fore
346.019 273.265 m 1
 168.74 95.9783 l 1
 186.551 87.0332 206.678 82 228 82 c 0
 301 82 360 141 360 214 c 0
 360 235.323 354.966 255.452 346.019 273.265 c 1
98.8196 26.0557 m 1
 54.8281 -17.9375 l 1
 -13.0469 49.9531 l 1
 32.895 95.895 l 1
 12.0163 130.333 1.27157e-06 170.753 0 214 c 0
 0 340 102 442 228 442 c 0
 271.247 442 311.667 429.984 346.105 409.105 c 1
 390 453 l 1
 457.875 385.125 l 1
 415.939 343.188 l 1
 441.211 306.476 456 261.978 456 214 c 0
 456 88 354 -14 228 -14 c 0
 180.025 -14 135.53 0.787043 98.8196 26.0557 c 1
274.575 337.575 m 1
 260.097 343.022 244.402 346 228 346 c 0
 155 346 96 287 96 214 c 0
 96 197.598 98.9785 181.903 104.425 167.425 c 1
 274.575 337.575 l 1
EndSplineSet
EndChar
StartChar: thorn
Encoding: 254 254 83
Width: 451
Flags: HW
Fore
116 -206 m 17
 20 -206 l 1
 20 42 l 1
 20 230 l 1
 20 633 l 5
 116 633 l 5
 116 386.557 l 17
 152.571 419.509 194.799 442.12 234.46 442.12 c 0
 339.086 442.12 418 340.514 418 215.32 c 0
 418 90.126 362.88 -14 215.46 -14 c 1
 184 -14 116 24.0654 116 24.0654 c 0
 116 24.0654 116 -116.274 116 -206 c 17
322.796 213.48 m 0
 322.796 285.814 292.885 344.52 238.527 344.52 c 1
 169 330 117.259 266 117.259 213.48 c 1
 117.259 144 165.169 82.4404 219.527 82.4404 c 0
 257.823 82.4404 322.796 99.5996 322.796 213.48 c 0
EndSplineSet
EndChar
